<svg xmlns="http://www.w3.org/2000/svg" width="48" height="48" viewBox="0 0 48 48"><g transform="translate(-380 -219)"><rect width="48" height="48" rx="4" transform="translate(380 219)" fill="#f2f9fc"/><g transform="translate(309 542)"><rect width="32" height="32" transform="translate(79 -315)" fill="#1292be" opacity="0"/><g transform="translate(80.667 -310)"><path d="M24.167,25.167H15.5a1,1,0,0,1,0-2h8.667c.835,0,5-.209,5-4.333a4.809,4.809,0,0,0-2.452-4.4,7.588,7.588,0,0,0-2.662-.943,1,1,0,0,1-.848-.719c-.456-1.6-1.89-4.275-6.372-4.275-4.275,0-5.589,2.535-6.372,5.275A1,1,0,0,1,9.5,14.5a6.354,6.354,0,0,0-2.97.931A4.147,4.147,0,0,0,4.5,19.167a3.417,3.417,0,0,0,1.69,3.148,6.594,6.594,0,0,0,3.31.852,1,1,0,0,1,0,2,8.693,8.693,0,0,1-4.356-1.148A5.412,5.412,0,0,1,2.5,19.167a6.112,6.112,0,0,1,2.97-5.431A8.566,8.566,0,0,1,8.739,12.56a9.692,9.692,0,0,1,1.933-3.6A7.882,7.882,0,0,1,16.833,6.5a8.88,8.88,0,0,1,5.8,1.852,7.622,7.622,0,0,1,2.3,3.269,9.672,9.672,0,0,1,2.74,1.056,6.781,6.781,0,0,1,3.5,6.155C31.167,23.208,27.651,25.167,24.167,25.167Z" transform="translate(-2.5 -6.5)" fill="#1292be"/><path d="M24.833,35.167a1,1,0,0,1-.707-.293L20.793,31.54a1,1,0,0,1,0-1.414l3.333-3.333a1,1,0,0,1,1.414,1.414l-2.626,2.626L25.54,33.46a1,1,0,0,1-.707,1.707Z" transform="translate(-8.5 -13.167)" fill="#1292be"/></g></g></g></svg>