<svg xmlns="http://www.w3.org/2000/svg" width="48" height="48" viewBox="0 0 48 48"><g transform="translate(-288 -128)"><rect width="48" height="48" rx="4" transform="translate(288 128)" fill="#fceeee"/><g transform="translate(296 136)"><rect width="32" height="32" fill="#e25a5a" opacity="0"/><path d="M20.167,13.5a7.667,7.667,0,0,1,7.667,7.667V31.833a1,1,0,0,1-1,1H13.5a1,1,0,0,1-1-1V21.167A7.667,7.667,0,0,1,20.167,13.5Zm5.667,17.333V21.167a5.667,5.667,0,1,0-11.333,0v9.667Z" transform="translate(-4.167 -4.5)" fill="#e25a5a"/><path d="M23.5,7.5a1,1,0,0,1-1-1v-2a1,1,0,0,1,2,0v2A1,1,0,0,1,23.5,7.5Z" transform="translate(-7.5 -1.167)" fill="#e25a5a"/><path d="M33.463,11.36A1,1,0,0,1,32.7,9.717l1.286-1.532a1,1,0,1,1,1.532,1.286L34.229,11A1,1,0,0,1,33.463,11.36Z" transform="translate(-10.821 -2.609)" fill="#e25a5a"/><path d="M38.763,21.135a1,1,0,0,1-.172-1.985l1.97-.347a1,1,0,1,1,.347,1.97l-1.97.347A1.007,1.007,0,0,1,38.763,21.135Z" transform="translate(-12.588 -6.262)" fill="#e25a5a"/><path d="M7.252,21.135a1.006,1.006,0,0,1-.175-.015l-1.97-.347a1,1,0,0,1,.347-1.97l1.97.347a1,1,0,0,1-.172,1.985Z" transform="translate(-1.427 -6.262)" fill="#e25a5a"/><path d="M12.895,11.36A1,1,0,0,1,12.128,11L10.842,9.471a1,1,0,0,1,1.532-1.286L13.66,9.717a1,1,0,0,1-.766,1.643Z" transform="translate(-3.536 -2.609)" fill="#e25a5a"/><path d="M30.167,41.5H5.5a1,1,0,0,1,0-2H30.167a1,1,0,0,1,0,2Z" transform="translate(-1.5 -13.167)" fill="#e25a5a"/></g></g></svg>