<svg xmlns="http://www.w3.org/2000/svg" width="48" height="48" viewBox="0 0 48 48"><g transform="translate(-288 -128)"><rect width="48" height="48" rx="4" transform="translate(288 128)" fill="#fff5e5"/><g transform="translate(296 136)"><rect width="32" height="32" fill="#ff9d00" opacity="0"/><path d="M36.5,31.5h-8a1,1,0,0,1,0-2h7v-7a1,1,0,1,1,2,0v8A1,1,0,0,1,36.5,31.5Z" transform="translate(-9.167 -7.167)" fill="#ff9d00"/><path d="M28.833,28.167a1,1,0,0,1-.723-.309L18.79,18.106l-5.877,3.581a1,1,0,0,1-1.291-.217L4.729,13.137a1,1,0,0,1,1.541-1.275l6.341,7.666,5.825-3.55a1,1,0,0,1,1.243.163l9.877,10.333a1,1,0,0,1-.723,1.691Z" transform="translate(-1.5 -3.833)" fill="#ff9d00"/></g></g></svg>