<svg xmlns="http://www.w3.org/2000/svg" width="48" height="48" viewBox="0 0 48 48"><g transform="translate(-288 -128)"><rect width="48" height="48" rx="4" transform="translate(288 128)" fill="#f3f8e9"/><g transform="translate(296 136)"><rect width="32" height="32" fill="#8ebb28" opacity="0"/><g transform="translate(4.333 2.333)"><g transform="translate(4.667 4.667)"><path d="M3.5,9.833a1,1,0,0,1-1-1V1.5a1,1,0,0,0-2,0V8.833a1,1,0,0,1-1,1,1,1,0,0,1-1-1V1.5a3,3,0,0,1,6,0V8.833A1,1,0,0,1,3.5,9.833Z" transform="translate(1.5 1.5)" fill="#8ebb28"/><path d="M7.833,25.5H7.167A8.667,8.667,0,0,1-1.5,16.833V12.5a1,1,0,0,1,1-1,1,1,0,0,1,1,1v4.333A6.674,6.674,0,0,0,7.167,23.5h.667A6.674,6.674,0,0,0,14.5,16.833V12.5a1,1,0,0,1,2,0v4.333A8.667,8.667,0,0,1,7.833,25.5Z" transform="translate(1.5 -2.833)" fill="#8ebb28"/><path d="M9.5,14.833a1,1,0,0,1-1-1V10.5a1,1,0,1,0-2,0v3.333a1,1,0,0,1-2,0V10.5a3,3,0,1,1,6,0v3.333A1,1,0,0,1,9.5,14.833Z" transform="translate(-0.5 -1.5)" fill="#8ebb28"/><path d="M15.5,14.833a1,1,0,0,1-1-1V10.5a1,1,0,1,0-2,0v3.333a1,1,0,1,1-2,0V10.5a3,3,0,1,1,6,0v3.333A1,1,0,0,1,15.5,14.833Z" transform="translate(-2.5 -1.5)" fill="#8ebb28"/><path d="M21.5,14.833a1,1,0,0,1-1-1V10.5a1,1,0,1,0-2,0v3.333a1,1,0,0,1-2,0V10.5a3,3,0,1,1,6,0v3.333A1,1,0,0,1,21.5,14.833Z" transform="translate(-4.5 -1.5)" fill="#8ebb28"/></g><path d="M12.833,7.167a1,1,0,0,1-1-1A5.667,5.667,0,1,0,.5,6.167a1,1,0,0,1-1,1,1,1,0,0,1-1-1,7.667,7.667,0,1,1,15.333,0A1,1,0,0,1,12.833,7.167Z" transform="translate(1.5 1.5)" fill="#8ebb28"/></g></g></g></svg>