<svg xmlns="http://www.w3.org/2000/svg" xmlns:xlink="http://www.w3.org/1999/xlink" width="250" height="250" viewBox="0 0 250 250"><defs><clipPath id="a"><rect width="249.139" height="219.379" fill="none"/></clipPath><clipPath id="b"><rect width="223.57" height="183.034" fill="none"/></clipPath><clipPath id="c"><rect width="41.71" height="20.641" fill="#fff"/></clipPath><clipPath id="d"><rect width="6.542" height="8.762" fill="none"/></clipPath><clipPath id="e"><rect width="6.264" height="7.04" fill="none"/></clipPath><clipPath id="f"><rect width="5.349" height="6.573" fill="none"/></clipPath><clipPath id="g"><rect width="42.657" height="103.462" fill="#334d6e"/></clipPath><clipPath id="h"><rect width="4.485" height="35.516" fill="none"/></clipPath><clipPath id="i"><rect width="34.727" height="45.922" fill="#fff"/></clipPath><clipPath id="j"><rect width="15.085" height="20.063" fill="#a1ccdb"/></clipPath><clipPath id="k"><rect width="6.133" height="6.87" fill="none"/></clipPath><clipPath id="l"><rect width="16.42" height="11.558" fill="#fff"/></clipPath><clipPath id="m"><rect width="5.886" height="10.289" fill="none"/></clipPath><clipPath id="n"><rect width="39.929" height="41.197" fill="#fff"/></clipPath><clipPath id="o"><rect width="6.39" height="3.728" fill="none"/></clipPath><clipPath id="p"><rect width="29.289" height="38.689" fill="#a1ccdb"/></clipPath><clipPath id="q"><rect width="4.025" height="8.478" fill="none"/></clipPath><clipPath id="r"><rect width="4.208" height="18.212" fill="#32444a"/></clipPath><clipPath id="s"><rect width="6.441" height="6.952" fill="none"/></clipPath><clipPath id="t"><rect width="11.885" height="6.516" fill="none"/></clipPath><clipPath id="u"><rect width="17.84" height="26.968" fill="none"/></clipPath><clipPath id="x"><rect width="54.44" height="55.922" fill="#d1e8f0"/></clipPath><clipPath id="y"><rect width="13.43" height="14.225" fill="#a1ccdb"/></clipPath><clipPath id="z"><rect width="33.926" height="5.647" fill="#32444a"/></clipPath><clipPath id="aa"><rect width="16.042" height="15.077" fill="#32444a"/></clipPath><clipPath id="ab"><rect width="6.651" height="9.847" fill="#ffd8d5"/></clipPath><clipPath id="ac"><rect width="41.384" height="42.24" fill="#a1ccdb"/></clipPath><clipPath id="ad"><rect width="5.084" height="6.977" fill="none"/></clipPath><clipPath id="ae"><rect width="39.458" height="3.154" fill="#c5d3e3"/></clipPath><clipPath id="ag"><rect width="50.864" height="100.384" fill="#c5d3e3"/></clipPath></defs><g transform="translate(-1341 -415)"><rect width="250" height="250" transform="translate(1341 415)" fill="#fff" opacity="0"/><g transform="translate(1341.86 428.393)"><g clip-path="url(#a)"><g transform="translate(0 8)" opacity="0.2"><path d="M26.931,40.2q1.192-3.066,2.618-6.018C42.443,7.56,73.366-3.707,101.463,1.069c31.491,5.362,53.841,27.87,60.484,58.743,5.261,24.445,20.237,26.962,27.2,16.08s24.236-21.2,41.067-9.462c26.268,18.294,10.724,56.383-5.974,75.516-27.851,31.882-69.618,47.71-111.209,38.48-34.563-7.677-67.625-30.185-82.985-62.692C19.071,94.513,17.443,64.65,26.931,40.2" transform="translate(-25.342 74.471) rotate(-22)" fill="#c2cfe0"/><path d="M26.931,40.2q1.192-3.066,2.618-6.018C42.443,7.56,73.366-3.707,101.463,1.069c31.491,5.362,53.841,27.87,60.484,58.743,5.261,24.445,20.237,26.962,27.2,16.08s24.236-21.2,41.067-9.462c26.268,18.294,10.724,56.383-5.974,75.516-27.851,31.882-69.618,47.71-111.209,38.48-34.563-7.677-67.625-30.185-82.985-62.692C19.071,94.513,17.443,64.65,26.931,40.2" transform="translate(-25.342 74.471) rotate(-22)" fill="#c2cfe0"/><rect width="249.139" height="219.379" fill="none"/></g><g transform="translate(64.389 39.422)"><path d="M86.633,82.045a3.878,3.878,0,0,0-2.763-.511c-2.7.511-3.343,3.154-2.984,5.116a4.517,4.517,0,0,0,3.066,3.438c2.126.536,4-1.432,4.548-2.908a4.22,4.22,0,0,0-1.867-5.135" transform="translate(-67.412 -69.497)" fill="#334d6e"/><path d="M165.5,124.322l10.667-2.99s0-.631,1.659-1.81,6.1-2.107,6.1-2.107,2.044,5.911,1.382,6.075-6.649,2.164-6.983,1.5L166.97,128.2Z" transform="translate(-98.683 -82.768)" fill="#b97964"/><path d="M113.164,108.824c6.226,2.012,15.922,13,17.815,13.657s20.01-3.255,20.01-3.255l2.523,4.662s-16.629,6.018-22.552,5.551-13.651-9.248-19.19-10.516Z" transform="translate(-78.847 -79.596)" fill="#dbe2eb"/><g transform="translate(32.974 29.228)" style="isolation:isolate"><g clip-path="url(#c)"><path d="M153.56,123.888s-16.629,6.018-22.552,5.551c-3.829-.3-8.4-4.069-12.617-7.04a21.3,21.3,0,0,0-6.542-3.476l.719-5.286.631-4.813c6.226,2.012,15.922,12.989,17.815,13.657s20.01-3.255,20.01-3.255Z" transform="translate(-111.85 -108.824)" fill="#fff"/></g></g><g transform="translate(32.942 34.041)" opacity="0.2" style="isolation:isolate"><g clip-path="url(#d)"><path d="M118.342,125.216a21.3,21.3,0,0,0-6.542-3.476l.719-5.286a23.119,23.119,0,0,1,5.823,8.762" transform="translate(-111.8 -116.454)"/></g></g><path d="M124.131,316.569l-4.208.738-1.722-5.728-1.571-5.255,4.845-1.691,1.407,6.315Z" transform="translate(-80.641 -151.884)" fill="#ffc3bd"/><path d="M120.35,323.908c-.069-.467,5.677-1.1,5.677-1.1s4.132,2.94,7.677,3.154,2,2.574-1.8,3.249l-9.4,1.659c-2.7.461-1.413-2.132-2.151-6.958" transform="translate(-82.014 -158.592)" fill="#263238"/><path d="M132.59,322.821a8.9,8.9,0,0,1-2.063-.341.114.114,0,0,1-.05,0,.082.082,0,0,1-.038-.044V322.4a.255.255,0,0,1,0-.069,3.291,3.291,0,0,1,.971-1.93.871.871,0,0,1,.738-.107c.284.076.435.214.461.41.038.3-.315.675-.738,1a2.363,2.363,0,0,1,1.3-.088.632.632,0,0,1,.372.334.568.568,0,0,1,0,.631,1.223,1.223,0,0,1-.953.24m-1.558-.524c.9.208,1.993.334,2.227.069,0,0,.082-.095,0-.309a.3.3,0,0,0-.2-.17,3.761,3.761,0,0,0-2.031.41m.839-1.76a.555.555,0,0,0-.322.1,2.523,2.523,0,0,0-.763,1.394c.789-.467,1.527-1.053,1.5-1.312,0-.082-.151-.132-.24-.158a.818.818,0,0,0-.17-.025" transform="translate(-85.738 -157.65)" fill="#dbe2eb"/><g transform="translate(36.002 152.775)" opacity="0.2" style="isolation:isolate"><g clip-path="url(#e)"><path d="M122.914,311.1l-4.687.618L116.65,306.4l4.838-1.722Z" transform="translate(-116.65 -304.674)"/></g></g><path d="M80.772,319.257H76.5l-.7-5.936-.631-5.457,5.066-.82.284,6.466Z" transform="translate(-65.335 -152.774)" fill="#ffc3bd"/><path d="M75.459,325.833c0-.473,5.791-.1,5.791-.1s3.558,3.615,7.008,4.416,1.527,2.883-2.334,2.883H76.374c-2.744.013-1.028-2.321-.915-7.2" transform="translate(-65.208 -159.622)" fill="#263238"/><path d="M88.391,326.605A7.2,7.2,0,0,1,86,325.873a.112.112,0,0,1-.057-.038V325.8a.158.158,0,0,1,0-.12c0-.057.5-1.407,1.262-1.728a.878.878,0,0,1,.744,0c.265.126.391.29.378.486,0,.3-.429.631-.9.858a2.376,2.376,0,0,1,1.262.145.591.591,0,0,1,.309.391.543.543,0,0,1-.139.631.786.786,0,0,1-.473.139m-1.892-.826c.852.36,1.892.681,2.183.454,0,0,.1-.076.038-.3a.29.29,0,0,0-.164-.2,3.371,3.371,0,0,0-2.031.019Zm1.035-1.59a.629.629,0,0,0-.233.044,2.573,2.573,0,0,0-.99,1.262c.858-.322,1.684-.776,1.7-1.035,0-.076-.126-.151-.208-.189a.577.577,0,0,0-.24-.114Z" transform="translate(-69.308 -158.986)" fill="#dbe2eb"/><g transform="translate(9.835 154.295)" opacity="0.2" style="isolation:isolate"><g clip-path="url(#f)"><path d="M80.519,313.657l-4.719-.208-.631-5.507,5.066-.858Z" transform="translate(-75.17 -307.084)"/></g></g><path d="M102.236,250.065,95.3,251.282c-6.939-17.367-11.929-31.863-15.43-43.893C77.975,200.9,76.511,195.126,75.382,190l.315,18.925v42.928h-6.99c-17.064-81.377-4.971-99.974-4.971-99.974l20.414-3.488a92.212,92.212,0,0,1,1.71,11.424l.921,6.75,7.98,41.206Z" transform="translate(-59.58 -94.205)" fill="#dbe2eb"/><g transform="translate(0 54.189)" style="isolation:isolate"><g clip-path="url(#g)"><path d="M102.236,250.065,95.3,251.282c-6.939-17.367-11.929-31.863-15.43-43.893C77.975,200.9,76.511,195.126,75.382,190l.315,18.925v42.928h-6.99c-17.064-81.377-4.971-99.974-4.971-99.974l20.414-3.488a92.212,92.212,0,0,1,1.71,11.424l.921,6.75,7.98,41.206Z" transform="translate(-59.58 -148.394)" fill="#334d6e"/></g></g><path d="M114.54,308.483l8.567-2.839-.12,3.64-7.084,2.265Z" transform="translate(-79.87 -152.257)" fill="#dbe2eb"/><path d="M72.61,310.01l8.933-1.306-.751,3.564-7.368,1Z" transform="translate(-64.39 -153.387)" fill="#dbe2eb"/><g transform="translate(15.834 77.669)" opacity="0.2" style="isolation:isolate"><g transform="translate(0 0)"><g clip-path="url(#h)"><path d="M89.165,221.13c-1.892-6.491-3.356-12.263-4.485-17.386A160.189,160.189,0,0,1,86,185.614S88.989,209,89.165,221.13" transform="translate(-84.68 -185.614)"/></g></g></g><path d="M87.527,148.057l-8.718,2.952L77.194,145.7l-1.766,4.889L59.6,146.909c1.356-9.715,6.775-17.468,7.627-20.407,1.173-4.063,2.094-11.834,1.293-16.862v-.063a3.734,3.734,0,0,1,3.109-4.269c.09-.015.181-.025.273-.033,1.527-.12,3.066-.177,4.605-.183a64.94,64.94,0,0,1,9.128.536c3.886.631,8.283,1.792,8.283,1.792s.631.259.328,4.416c-.259,3.652-.959,15-8.428,24.6Z" transform="translate(-59.587 -78.217)" fill="#dbe2eb"/><g transform="translate(0.013 26.87)" style="isolation:isolate"><g clip-path="url(#i)"><path d="M87.527,148.057l-8.718,2.952L77.194,145.7l-1.766,4.889L59.6,146.909c1.356-9.715,6.775-17.468,7.627-20.407,1.173-4.063,2.094-11.834,1.293-16.862v-.063a3.734,3.734,0,0,1,3.109-4.269c.09-.015.181-.025.273-.033,1.527-.12,3.066-.177,4.605-.183a64.94,64.94,0,0,1,9.128.536c3.886.631,8.283,1.792,8.283,1.792s.631.259.328,4.416c-.259,3.652-.959,15-8.428,24.6Z" transform="translate(-59.6 -105.087)" fill="#fff"/></g></g><path d="M87.484,111.986s3.482,3.022,4.5,10.787l3.93-10.857,2.7.826s-2.082-9.847-8.832-10.03-6.245,10.03-6.245,10.03Z" transform="translate(-68.42 -77.339)" fill="#dbe2eb"/><g transform="translate(15.106 25.371)" style="isolation:isolate"><g clip-path="url(#j)"><path d="M87.484,111.986s3.482,3.022,4.5,10.787l3.93-10.857,2.7.826s-2.082-9.847-8.832-10.03-6.245,10.03-6.245,10.03Z" transform="translate(-83.526 -102.71)" fill="#a1ccdb"/></g></g><path d="M98.8,96.966s-2.473,1.6-2.9,2.656a1.268,1.268,0,0,0-.063.2,15.566,15.566,0,0,0-.246,1.823c1.892,4.069-1.735,11.071-1.735,11.071a43.815,43.815,0,0,0-6.2-11.544c3.968-1.552,4.725-9.16,4.725-9.16L94.267,93.5Z" transform="translate(-69.942 -73.391)" fill="#ffc3bd"/><g transform="translate(22.722 19.563)" opacity="0.2" style="isolation:isolate"><g clip-path="url(#k)"><path d="M101.731,97.516s-2.473,1.6-2.9,2.656a1.268,1.268,0,0,0-.063.2,8.055,8.055,0,0,1-3.154-6.87l1.609.543Z" transform="translate(-95.599 -93.504)"/></g></g><path d="M103.831,70.039s4.075.126,5.2,3.57.29,7.311-5.759,11.475c-2.959,2.038-10.308-1.943-10.308-1.943l-.587,1.779a14.943,14.943,0,0,1-2.656-2.467C87.348,79.665,87.96,70.43,94.558,68.62c6.889-1.861,9.273,1.419,9.273,1.419" transform="translate(-70.24 -64.543)" fill="#334d6e"/><path d="M102.026,73.038c5.179.7,6.472,3.7,6.125,9.1-.435,6.731-2.561,11.273-8.832,8.964-8.548-3.135-5.886-19.24,2.706-18.061" transform="translate(-72.32 -66.363)" fill="#ffc3bd"/><path d="M94.364,79.707s3-3.924,3.085-7.261c0,0,10.838-2.795,9.923,7.7,0,0,2.265-9.115-6.611-10.535S89.835,80.413,93.885,84.924a5.227,5.227,0,0,1,.479-5.217" transform="translate(-71.509 -65.077)" fill="#334d6e"/><path d="M94.748,86.193a2.3,2.3,0,0,0-2.164-2.41c-1.628-.044-2.845,3.154,1.041,4.485.574.2.959-.328,1.123-2.075" transform="translate(-71.193 -70.352)" fill="#ffc3bd"/><path d="M87.841,74.081l.379-8.062L86.8,63.792a21.01,21.01,0,0,1,11.513-.845l4.927,5.047s-9.525-2.34-15.4,6.087" transform="translate(-69.629 -62.497)" fill="#dbe2eb"/><g transform="translate(17.171)" style="isolation:isolate"><g clip-path="url(#l)"><path d="M103.22,67.988a15.657,15.657,0,0,0-10.535,1.583,14.566,14.566,0,0,0-4.845,4.479l.379-8.062L86.8,63.761a21.013,21.013,0,0,1,11.513-.82Z" transform="translate(-86.8 -62.492)" fill="#fff"/></g></g><g transform="translate(17.171 1.294)" opacity="0.1" style="isolation:isolate"><g clip-path="url(#m)"><path d="M92.686,70.354a14.566,14.566,0,0,0-4.845,4.479l.379-8.062L86.8,64.544Z" transform="translate(-86.8 -64.544)"/></g></g><path d="M126.389,163.384l6.939,1.6a23.891,23.891,0,0,1,5.116.871c2.624.77,5.463,1.892,5.047,2.574s-4.958,4.334-6.409,4.1-5.532-2.523-5.047-3.659l-6.775-1.646Z" transform="translate(-83.827 -99.739)" fill="#ffc3bd"/><path d="M74.377,106.094c2.485-.725,7.311,22.71,10.869,26.678s25.006,9.809,25.006,9.809l-1.085,4.693s-26.293-3.2-29.788-8.2-8.358-18.408-8.977-25.088,2.511-7.456,3.974-7.892" transform="translate(-63.546 -78.583)" fill="#dbe2eb"/><g transform="translate(6.777 27.495)" style="isolation:isolate"><g clip-path="url(#n)"><path d="M74.377,106.094c2.485-.725,7.311,22.71,10.869,26.678s25.006,9.809,25.006,9.809l-1.085,4.693s-26.293-3.2-29.788-8.2-8.358-18.408-8.977-25.088,2.511-7.456,3.974-7.892" transform="translate(-70.323 -106.078)" fill="#fff"/></g></g><path d="M108.356,134.968l-6.926-.467.492-3.867,6.933.467Z" transform="translate(-75.03 -87.648)" fill="#dbe2eb"/><g transform="translate(26.993 43.289)" opacity="0.5" style="isolation:isolate"><g clip-path="url(#o)"><path d="M108.338,134.842l-5.968-.4.429-3.324,5.961.4Z" transform="translate(-102.37 -131.114)" fill="#fff"/></g></g><path d="M107.639,128.964l-.669,1.867h1.117v-1.867Z" transform="translate(-77.075 -87.032)" fill="#263238"/><path d="M130.4,172.056l-6.46,1.217s-6.756-1.476-7.93-1.217-4.214,6.22-4.214,6.22,10.377,2.265,11.7,1.823a5.923,5.923,0,0,0,2.422-2.164l5.047-.934Z" transform="translate(-78.858 -102.929)" fill="#ffd8d5"/><path d="M152.514,123.6c-3.053,4.586,1.382,23.189,1.659,24.369s-18.193,6.176-18.193,6.176l2.662,8.144s23.019-2.656,25.574-5.4-.322-25.3-.322-25.3L152.539,123.6Z" transform="translate(-87.785 -85.053)" fill="#dbe2eb"/><g transform="translate(48.195 38.551)" opacity="0.618" style="isolation:isolate"><g clip-path="url(#p)"><path d="M164.216,156.893c-2.176,2.34-19.234,4.618-24.211,5.236l-1.363.164-2.662-8.144,1.211-.334c4.107-1.135,17.215-4.845,16.982-5.841-.278-1.18-4.712-19.783-1.659-24.369l1.974.833,6.535,4.971,2.87,2.183s1.148,8.794,1.337,16.029c.132,4.4-.057,8.239-1.016,9.273" transform="translate(-135.98 -123.604)" fill="#a1ccdb"/></g></g><g transform="translate(48.195 68.762)" opacity="0.1" style="isolation:isolate"><g clip-path="url(#q)"><path d="M140,179.808l-1.363.164-2.662-8.144,1.211-.334Z" transform="translate(-135.98 -171.494)"/></g></g><g transform="translate(73.239 44.355)" opacity="0.2" style="isolation:isolate"><g clip-path="url(#r)"><path d="M179.888,151.016c-3.785-6.062-4.157-12.7-4.208-18.212l2.87,2.183s1.148,8.794,1.337,16.029" transform="translate(-175.68 -132.804)" fill="#32444a"/></g></g><path d="M196.561,323.56,191.628,325l-2.908-10.68,4.933-1.445Z" transform="translate(-107.255 -154.926)" fill="#ffd8d5"/><path d="M187.106,328.464h6.037a.436.436,0,0,1,.423.341l.978,4.416a.738.738,0,0,1-.561.871.712.712,0,0,1-.164,0c-1.949-.032-3.362-.151-5.81-.151-1.508,0-6.05.158-8.131.158s-2.353-2.05-1.5-2.239c3.823-.833,6.693-1.987,7.917-3.085a1.193,1.193,0,0,1,.814-.309" transform="translate(-103.269 -160.681)" fill="#263238"/><g transform="translate(81.465 157.948)" opacity="0.2" style="isolation:isolate"><g clip-path="url(#s)"><path d="M193.653,312.874l-4.933,1.445,1.5,5.507,4.939-1.438Z" transform="translate(-188.72 -312.874)"/></g></g><path d="M201.649,167.774a90.427,90.427,0,0,1,1.672,20.653c-.442,11.109-25.549,24.9-26.028,28.778s7.728,44.448,7.728,44.448l-8.661,3.078s-17.114-36.727-17.31-45.716,18.723-30.589,23.883-36.544c2.006-2.315.032-11.632.032-11.632Z" transform="translate(-96.3 -101.359)" fill="#7c9ba8"/><path d="M184.857,320.06l10.547-3.577-.871-2.94-11.014,3.52Z" transform="translate(-105.335 -155.173)" fill="#dbe2eb"/><g transform="translate(78.185 158.371)" opacity="0.6" style="isolation:isolate"><g transform="translate(0)"><g clip-path="url(#t)"><path d="M184.857,320.06l10.547-3.577-.871-2.94-11.014,3.52Z" transform="translate(-183.52 -313.544)" fill="#fff"/></g></g></g><g transform="translate(81.352 88.052)" opacity="0.2" style="isolation:isolate"><g transform="translate(0)"><g clip-path="url(#u)"><path d="M206.38,213.6c-6.794,6.573-15.922,12.528-17.84,15.443.366-13.064,16.137-26.968,16.137-26.968Z" transform="translate(-188.54 -202.074)"/></g></g></g><path d="M234.427,323.56,229.494,325l-2.914-10.68,4.939-1.445Z" transform="translate(-121.232 -154.926)" fill="#ffd8d5"/><path d="M224.966,328.464h6.018a.436.436,0,0,1,.423.341l.978,4.416a.738.738,0,0,1-.568.871.658.658,0,0,1-.158,0c-1.949-.032-3.369-.151-5.81-.151-1.508,0-6.056.158-8.131.158s-2.353-2.05-1.5-2.239c3.816-.833,6.693-1.987,7.917-3.085a1.192,1.192,0,0,1,.833-.309" transform="translate(-117.239 -160.681)" fill="#263238"/><g transform="translate(105.348 157.948)" opacity="0.2" style="isolation:isolate"><g clip-path="url(#s)"><path d="M231.519,312.874l-4.939,1.445,1.508,5.507,4.933-1.438Z" transform="translate(-226.58 -312.874)"/></g></g><path d="M225.416,164.2A47.312,47.312,0,0,1,229.4,184.46c-.442,11.1-13.777,27.542-14.257,31.422s7.7,44.454,7.7,44.454l-8.668,3.078S197.06,226.688,196.858,217.7s10.863-29.6,10.863-29.6l-2.3-20.439Z" transform="translate(-110.258 -100.041)" fill="#7c9ba8"/><path d="M222.721,320.06l10.554-3.577-.877-2.94-11.008,3.52Z" transform="translate(-119.316 -155.173)" fill="#dbe2eb"/><g transform="translate(102.074 158.371)" opacity="0.6" style="isolation:isolate"><g clip-path="url(#t)"><path d="M222.721,320.06l10.554-3.577-.877-2.94-11.008,3.52Z" transform="translate(-221.39 -313.544)" fill="#fff"/></g></g><path d="M216.63,153.842s-30.1,4.542-33.093,2.126c-4.416-3.558-9.292-33.32-21.347-40.8a25.628,25.628,0,0,1,4.479-5.375,32.611,32.611,0,0,1,13.184-7.57,37.45,37.45,0,0,1,11.55-1.457s23.631,16.793,25.227,53.078" transform="translate(-97.461 -76.614)" fill="#dbe2eb"/><g transform="translate(64.729 24.139)" style="isolation:isolate"><g clip-path="url(#x)"><path d="M216.63,153.846s-30.1,4.542-33.093,2.126a4.214,4.214,0,0,1-.833-.965c-4.214-6.226-9.21-32.8-20.515-39.837a25.629,25.629,0,0,1,4.479-5.375l.5-.467a32.629,32.629,0,0,1,12.68-7.084c.246-.076.5-.145.751-.208a37.355,37.355,0,0,1,10.8-1.262,55.3,55.3,0,0,1,11,11.506,71.668,71.668,0,0,1,8.5,15.077,76.8,76.8,0,0,1,5.558,23.662c.076.94.132,1.874.177,2.826" transform="translate(-162.19 -100.758)" fill="#d1e8f0"/></g></g><g transform="translate(69.713 25.417)" opacity="0.618" style="isolation:isolate"><g transform="translate(0)"><g clip-path="url(#y)"><path d="M183.52,102.784a74.347,74.347,0,0,1-4.29,14.225s-6.176-2.284-9.141-6.939a32.629,32.629,0,0,1,12.68-7.084c.246-.069.5-.139.751-.2" transform="translate(-170.09 -102.784)" fill="#a1ccdb"/></g></g></g><g transform="translate(85.244 74.414)" opacity="0.2" style="isolation:isolate"><g transform="translate(0 0)"><g clip-path="url(#z)"><path d="M228.636,183.267s-30.1,4.542-33.093,2.126a4.214,4.214,0,0,1-.833-.965,119.645,119.645,0,0,0,33.749-3.974c.076.927.132,1.861.177,2.813" transform="translate(-194.71 -180.454)" fill="#32444a"/></g></g></g><g transform="translate(97.394 35.675)" opacity="0.2" style="isolation:isolate"><g clip-path="url(#aa)"><path d="M230.012,134.121c-10.554-2.782-16.042-14.654-16.042-14.654l7.57-.423a71.669,71.669,0,0,1,8.472,15.077" transform="translate(-213.97 -119.044)" fill="#32444a"/></g></g><path d="M181.907,98.587c-1.829,6.674-4.485,7.822-6.567,7.431a6.653,6.653,0,0,1-3.224-1.892,2.434,2.434,0,0,0,.29-1.3,3.325,3.325,0,0,0-1.445-2.473,10.785,10.785,0,0,0-1.262-.839l.132-1.716.631-8.144a43.4,43.4,0,0,0,3.854,5.047c.473.517.971,1.022,1.482,1.482,1.911,1.747,4.044,2.914,6.106,2.4" transform="translate(-100.233 -72.519)" fill="#ffd8d5"/><g transform="translate(69.461 23.651)" opacity="0.2" style="isolation:isolate"><g transform="translate(0)"><g clip-path="url(#ab)"><path d="M175.33,109.831a6.653,6.653,0,0,1-3.224-1.892,2.434,2.434,0,0,0,.29-1.3,3.325,3.325,0,0,0-1.445-2.473,10.785,10.785,0,0,0-1.262-.839l.132-1.716,5.974-1.628s1.5,5.98-.467,9.847" transform="translate(-169.69 -99.984)" fill="#ffd8d5"/></g></g></g><path d="M153.718,89.132s-1.785-.189-2.075,2.132.5,2.366.5,2.366-.631,1.943.151,2.492,1.426,2.87,1.426,2.87l1.766-3.242Z" transform="translate(-93.543 -72.325)" fill="#fff"/><path d="M167.921,97.971a6.937,6.937,0,0,1-.423.757,6.712,6.712,0,0,1-7.57,3.053,7.475,7.475,0,0,1-4.479-3.236,6.146,6.146,0,0,1-.4-.688c-.233-.479-.467-1-.675-1.564C152.68,91.77,150.926,85.569,156.4,82.3c3.444-2.075,9.229-2.334,11.292,1.129a10.723,10.723,0,0,1,1.1,8.485,7.8,7.8,0,0,1-.864,6.056" transform="translate(-93.956 -69.242)" fill="#ffd8d5"/><path d="M170.493,87.143s.915-.044.543-1.262a4.223,4.223,0,0,0-1.937-2.012s1.262-.833-.391-1.621a3.742,3.742,0,0,0-2.687-.164c-.549-.461-5.368-4.327-8.642-2.025a.158.158,0,0,0,.177.259c2.858-2.006,7.166,1.142,8.112,1.892l-.24.114c-.984-.442-8.232-3.552-10.667.1a.157.157,0,0,0,.042.219l0,0a.152.152,0,0,0,.211-.038l0-.006c2.139-3.2,8.567-.719,10.062-.082a3.473,3.473,0,0,0-.46.341c-1.5-.41-6.258-1.533-9.109,0a3.9,3.9,0,0,0-1.974,2.492.151.151,0,0,0,.1.188h.049a.157.157,0,0,0,.151-.114,3.616,3.616,0,0,1,1.823-2.3c2.605-1.419,7.053-.467,8.693-.038a3.667,3.667,0,0,0-.631,1c-.864,2.082.536,2.87,1.451,3.917a3.518,3.518,0,0,1,.479,2.832,7.316,7.316,0,0,1-1.93,2.649,2.418,2.418,0,0,0-1.823,0,3.6,3.6,0,0,0-1.785,1.792,2.709,2.709,0,0,0-3.217,1.974,8.831,8.831,0,0,1-2.807-3.432,9.438,9.438,0,0,0,1.52,6.239c.889,1.079,1.331,0,1.331,0s.208,2.12,1.394,2.914,1.6-.17,1.6-.17a4.215,4.215,0,0,0,2.87,1.892c2.239.561,2.952-2.662,2.952-2.662,2.454,1.892,2.246-2.58,2.246-2.58s1.2.334,1.091-1.848c-.095-1.7-1.609-5-2.277-6.378,1-.158,2.523,2.12,2.523,2.12,4.309.4,1.148-6.214,1.148-6.214" transform="translate(-94.264 -68.709)" fill="#fff"/><path d="M178.955,95.1a5.047,5.047,0,0,1-2.258,3.154c-1.514.934-2.763-.309-2.757-1.993,0-1.5.82-3.842,2.523-4.069a2.29,2.29,0,0,1,2.492,2.908" transform="translate(-101.798 -73.448)" fill="#ffd8d5"/><path d="M248.3,156.7l-3.154,3.488s-2.233,1.35-2.366,2.12,2.776,10.756,2.776,10.756,3.955-3.041,3.829-3.955a55.986,55.986,0,0,0-1.993-5.431l3.476-3.236Z" transform="translate(-127.21 -97.272)" fill="#ffd8d5"/><path d="M208.189,100.8s27.706,1.892,37.938,13.721-9.734,28.52-9.734,28.52l-3.6-6.125s8.1-8.2,5.1-13.746S219.6,118.1,219.6,118.1s-14.906-6.144-11.412-17.291" transform="translate(-114.246 -76.636)" fill="#dbe2eb"/><g transform="translate(93.418 24.168)" opacity="0.618" style="isolation:isolate"><g clip-path="url(#ac)"><path d="M237.88,141.707c-.908.858-1.482,1.337-1.482,1.337l-3.6-6.125s.309-.309.782-.852c1.949-2.233,6.737-8.409,4.321-12.894-3-5.564-18.294-5.078-18.294-5.078S204.7,111.951,208.2,100.8c0,0,27.706,1.892,37.938,13.714,8.491,9.822-3.835,23-8.258,27.189" transform="translate(-207.668 -100.804)" fill="#a1ccdb"/></g></g><g transform="translate(118.545 59.432)" opacity="0.1" style="isolation:isolate"><g clip-path="url(#ad)"><path d="M252.584,162.344c-.908.858-1.482,1.337-1.482,1.337l-3.6-6.125s.309-.309.782-.852Z" transform="translate(-247.5 -156.704)"/></g></g><path d="M94.707,278.638l4.416-72h35.749l1.855-20.552a8.384,8.384,0,0,0-8.251-7.835H105.64a8.39,8.39,0,0,0-8.352,7.841L91.61,278.638Zm5.677-92.347a5.223,5.223,0,0,1,5.2-4.883h22.886a5.223,5.223,0,0,1,5.2,4.876l1.06,17.2H99.344Z" transform="translate(-71.404 -105.228)" fill="#c5d3e3"/><g transform="translate(26.217 85.245)"><g clip-path="url(#ae)"><path d="M139.021,200.778h-36.3a1.577,1.577,0,1,1,0-3.154h36.3a1.577,1.577,0,1,1,0,3.154" transform="translate(-101.14 -197.624)" fill="#c5d3e3"/></g></g><g transform="translate(23.063 133.156)"><g clip-path="url(#ae)"><path d="M134.021,276.728h-36.3a1.577,1.577,0,1,1,0-3.154h36.3a1.577,1.577,0,1,1,0,3.154" transform="translate(-96.14 -273.574)" fill="#c5d3e3"/></g></g><g transform="translate(57.424 73.026)" style="isolation:isolate"><g clip-path="url(#ag)"><path d="M153.707,278.638l4.416-72h35.749l4.447,72h3.154l-5.715-92.549a8.384,8.384,0,0,0-8.283-7.835H164.64a8.39,8.39,0,0,0-8.352,7.841l-5.677,92.542Zm5.677-92.347a5.224,5.224,0,0,1,5.2-4.883h22.886a5.223,5.223,0,0,1,5.2,4.876l1.06,17.2H158.344Z" transform="translate(-150.61 -178.254)" fill="#c5d3e3"/></g></g></g></g></g></g></svg>