<svg xmlns="http://www.w3.org/2000/svg" width="48" height="48" viewBox="0 0 48 48"><g transform="translate(-54.611 -369.114)"><g transform="translate(-38 0)"><rect width="48" height="48" rx="8" transform="translate(92.611 369.115)" fill="#1292be"/><g transform="translate(102.411 381.767)"><path d="M688.214,591.587a.049.049,0,0,0-.008-.008,1.357,1.357,0,0,0-1.894.024l-.013.012-.012.012a4.788,4.788,0,0,1-1.224.879,4.841,4.841,0,0,1-2.3.511h-.008c-.125,0-.249-.012-.372-.025a4.938,4.938,0,0,1-.6-.1q-.1-.023-.2-.05-.114-.031-.227-.069l-.083-.028-.082-.029q-.164-.061-.322-.133l-.079-.037c-.078-.038-.155-.077-.231-.118l-.075-.042c-.025-.013-.05-.028-.075-.043s-.049-.028-.074-.044l-.073-.046c-.039-.025-.078-.051-.116-.077l-.041-.028c-.039-.027-.078-.055-.116-.084l-.017-.012c-.04-.03-.079-.061-.118-.092l-.009-.008c-.042-.033-.083-.067-.124-.1l-.029-.025c-.035-.03-.071-.062-.106-.1h0c-.041-.038-.082-.077-.122-.119s-.081-.082-.12-.123-.078-.084-.114-.127-.076-.086-.111-.131l-.063-.078c-.061-.079-.121-.161-.178-.244-.019-.026-.036-.052-.053-.079l0,0c-.055-.085-.108-.171-.157-.258-.017-.029-.033-.059-.049-.088-.031-.057-.06-.114-.088-.172l-.037-.077c-.009-.02-.019-.04-.027-.06s-.029-.063-.042-.1-.022-.052-.033-.078q-.064-.158-.116-.319a4.833,4.833,0,0,1-.208-.986c-.013-.126-.022-.253-.025-.38,0-.068,0-.137,0-.205,0-.029,0-.058,0-.087s0-.056,0-.084c0-.057.006-.113.011-.169.008-.093.019-.185.032-.277s.029-.184.048-.276.04-.183.064-.274h0c.013-.044.025-.089.038-.133s.027-.089.041-.132l0-.007c.015-.043.03-.086.045-.129s.033-.088.05-.132.03-.075.046-.112.043-.1.066-.149l.019-.041c.018-.038.036-.075.055-.111l.006-.012a4.818,4.818,0,0,1,.547-.838q.106-.132.221-.255l0,0c.039-.042.079-.083.12-.123s.077-.077.116-.112l.018-.017c.038-.036.077-.071.116-.1s.086-.074.13-.108l.01-.007c.032-.027.065-.052.1-.077l.051-.039c.062-.045.126-.09.189-.133.023-.016.047-.032.071-.047h0l.072-.045c.073-.045.148-.088.223-.13s.153-.081.231-.119c.026-.013.052-.025.079-.037.053-.024.106-.047.159-.069l.081-.033.081-.031c.055-.02.11-.04.165-.058l.112-.035,0,0,.066-.019.075-.021.113-.029a4.785,4.785,0,0,1,.573-.1l.073-.008.093-.009.112-.009c.044,0,.088-.005.133-.006s.089,0,.134,0a4.82,4.82,0,0,1,3.456,1.417,1.358,1.358,0,0,0,1.92-1.92,7.53,7.53,0,0,0-5.376-2.212h0c0-.012,0-.023,0-.035a7.554,7.554,0,1,0-15.107,0c0,.012,0,.024,0,.035a7.553,7.553,0,0,0-.092,15.1c.026,0,.052,0,.079,0h4.538c.023,0,.046,0,.07,0a1.357,1.357,0,0,0,1.253-1.353c0-.007,0-.015,0-.023a.084.084,0,0,0,0-.012,1.356,1.356,0,0,0-1.252-1.318l-.07,0h-4.49a4.839,4.839,0,1,1,0-9.677h.035c.154,0,.305.009.456.024a4.83,4.83,0,0,1,.526.083,1.364,1.364,0,0,0,.515.1c.031,0,.061,0,.091,0a1.357,1.357,0,0,0,1.263-1.279c0-.025,0-.05,0-.075,0-.008,0-.015,0-.023a.07.07,0,0,0,0-.012,1.008,1.008,0,0,0-.008-.112,1.323,1.323,0,0,0-.115-.421,4.818,4.818,0,0,1-.118-1c0-.023,0-.046,0-.07a4.839,4.839,0,1,1,9.677,0c0,.024,0,.047,0,.07a4.721,4.721,0,0,1-.038.546c-.049.019-.1.04-.147.061l-.067.028-.092.042c-.063.028-.126.058-.187.088l-.072.035c-.087.044-.173.089-.258.136l-.1.056-.013.008-.009.005c-.046.026-.091.053-.136.08l-.032.019c-.049.03-.1.06-.144.091s-.1.066-.155.1h0l-.15.1-.006,0-.127.093-.051.038-.1.078-.033.026-.117.1-.033.028c-.038.032-.076.064-.113.1l-.023.021-.1.091c-.019.017-.039.035-.058.054s-.064.059-.1.09l-.014.013c-.028.026-.055.053-.082.08l-.024.025h0c-.043.043-.087.087-.128.132l-.112.121c-.027.029-.054.06-.08.09s-.048.054-.071.082l-.015.017c-.037.044-.073.088-.109.132q-.14.172-.267.351l-.073.1c-.049.07-.1.14-.141.212-.023.035-.045.07-.067.106l0,0c-.022.036-.044.072-.066.108-.044.075-.088.151-.131.228l-.054.1-.008.015-.054.1c-.1.191-.185.386-.265.585-.02.05-.04.1-.059.152l-.009.022c-.013.035-.026.07-.038.106s-.017.049-.026.073c-.032.088-.06.177-.087.267l-.029.1a.031.031,0,0,0,0,.011c-.012.04-.023.079-.033.119-.022.081-.043.162-.061.244-.039.161-.071.324-.1.49-.014.082-.026.164-.036.247-.005.041-.01.083-.015.124s-.009.083-.013.124-.009.083-.011.125q0,.038-.006.077c0,.039-.006.078-.008.117q-.005.09-.007.18l0,.074c0,.04,0,.079,0,.119v.021h0v.012c0,.008,0,.016,0,.023,0,.042,0,.083,0,.124,0,.083,0,.166.008.249,0,.042,0,.083.007.125,0,.078.012.155.019.233l0,.031q.011.1.024.207c0,.008,0,.016,0,.024q.011.08.023.16v0h0q.036.234.087.466l.009.04c.02.09.042.18.065.27h0c.012.047.025.093.038.139h0c.038.133.079.266.124.4.03.086.061.171.094.256.012.031.024.062.037.094.019.048.038.1.059.142,0,.009.007.018.012.027.017.042.036.084.055.125l.006.013c.017.039.035.078.054.116s.029.062.044.093c.064.129.13.256.2.381.025.044.05.088.076.131s.052.087.078.129l.081.127.083.126q.125.187.264.366a7.676,7.676,0,0,0,.632.722l.024.026a7.546,7.546,0,0,0,5.3,2.212h.068a7.634,7.634,0,0,0,1.947-.261,7.514,7.514,0,0,0,3.34-1.926l.025-.025a1.358,1.358,0,0,0,0-1.92Z" transform="translate(-660.229 -573.04)" fill="#fff"/><g transform="translate(20.612 13.042)"><circle cx="2.226" cy="2.226" r="2.226" fill="#a3e225"/><rect width="5.39" height="1.406" rx="0.703" transform="translate(2.109 1.64)" fill="#a3e225"/></g></g></g></g></svg>