<svg xmlns="http://www.w3.org/2000/svg" width="160" height="48" viewBox="0 0 160 48"><g transform="translate(-1736 -1008)"><rect width="160" height="48" transform="translate(1736 1008)" fill="#fff" opacity="0"/><g transform="translate(3536.008 1777)"><g transform="translate(-1791.428 -752.745)"><path d="M-1763.667-729.306h3.511v1.51h.042a3.683,3.683,0,0,1,3.171-1.83,3.19,3.19,0,0,1,3.213,1.788,4.047,4.047,0,0,1,3.448-1.788c3.51,0,3.893,2.66,3.893,4.767v6.6H-1750v-6.49c0-1.191-.575-1.893-1.512-1.893-1.553,0-1.7,1.191-1.7,2.979v5.4h-3.618v-6.277c0-1.3-.383-2.107-1.362-2.107-1.3,0-1.851.745-1.851,3v5.383h-3.618Z" transform="translate(1763.667 729.626)" fill="#1292be"/></g><g transform="translate(-1772.79 -752.745)"><path d="M-1681.106-722.9a2.357,2.357,0,0,0,2.469,2.511,2.158,2.158,0,0,0,2.064-1.213h3.384c-.66,2.553-3.022,3.66-5.49,3.66-3.6,0-6.043-2.171-6.043-5.873a5.8,5.8,0,0,1,5.958-5.809c3.958,0,5.938,2.979,5.767,6.724Zm4.49-2.021a2.237,2.237,0,0,0-2.149-2.256,2.385,2.385,0,0,0-2.34,2.256Z" transform="translate(1684.723 729.626)" fill="#1292be"/></g><g transform="translate(-1746.708 -755.767)"><path d="M-1566.568-736.743h-2.235v5.022c0,.872.511,1.064,1.3,1.064.3,0,.618-.043.937-.043v2.66c-.66.021-1.32.107-1.98.107-3.085,0-3.872-.894-3.872-3.894v-4.916h-1.831v-2.34h1.831v-3.341h3.617v3.341h2.235Z" transform="translate(1574.25 742.424)" fill="#8ebb28"/></g><g transform="translate(-1738.474 -752.745)"><path d="M-1538.927-725.9a3.391,3.391,0,0,1,1.724-2.958,7.28,7.28,0,0,1,3.51-.766c2.617,0,5.149.575,5.149,3.7v4.83a6.417,6.417,0,0,0,.426,2.83h-3.639a4.313,4.313,0,0,1-.212-1.042,4.984,4.984,0,0,1-3.639,1.362c-2.106,0-3.767-1.064-3.767-3.341,0-3.6,3.915-3.319,6.427-3.83.617-.128.957-.341.957-1.021,0-.83-1-1.149-1.745-1.149a1.618,1.618,0,0,0-1.808,1.383Zm4.68,5.724c1.723,0,2.3-.979,2.214-3.256a10.269,10.269,0,0,1-2.234.6c-.808.192-1.49.532-1.49,1.4C-1535.756-720.539-1535.054-720.178-1534.246-720.178Z" transform="translate(1539.374 729.626)" fill="#8ebb28"/></g><g transform="translate(-1726.327 -752.745)"><path d="M-1480.2-725.263a1.7,1.7,0,0,0-1.766-1.6c-2.021,0-2.34,1.723-2.34,3.256,0,1.426.617,2.894,2.149,2.894a1.938,1.938,0,0,0,2.064-1.893h3.511c-.319,2.958-2.618,4.66-5.554,4.66a5.5,5.5,0,0,1-5.788-5.66c0-3.511,2.235-6.022,5.788-6.022,2.745,0,5.192,1.447,5.447,4.362Z" transform="translate(1487.92 729.626)" fill="#8ebb28"/></g><g transform="translate(-1797.664 -752.492)"><rect width="3.62" height="11.11" transform="translate(0 0)" fill="#8ebb28"/></g><path d="M-1621.689-745.848v5.341h-.043a4.687,4.687,0,0,0-3.645-1.511c-3.127,0-4.986,2.724-4.986,5.6,0,3.107,2.1,6.086,5.569,6.086a3.866,3.866,0,0,0,3.233-1.6h.042v1.276h3.447v-15.193Zm-.217,10.7h-2.016v2.016h-2.171v-2.016h-1.92v-2.075h1.92v-2.016h2.171v2.016h2.016Z" transform="translate(-129.593 -10.727)" fill="#1292be"/><g transform="translate(-1695.458 -753.213)"><g transform="translate(0 0)"><path d="M-1354.729-722.062a5.977,5.977,0,0,1-1.5,2.285l-.94-.771a5.479,5.479,0,0,0,1.489-2.023Zm-1.789-.783v-.835h9.453v-.614h-10.092v-.836h10.092v-.561h-9.414v-.849h1.972v-.587L-1357-727l-.039-.888,2.533-.131v-.653h-2.154v-.809h2.154v-.613h-2.414v-.888h2.414v-.627h1.071v.627h2.023v.888h-2.023v.613h1.893v.809h-1.893v.6l2.023-.117v.9l-2.023.117v.627h4.661v-.587h-2.154v-.9h2.154v-.64h-2.037v-.809h2.037v-.613h-2.037v-.888h2.037v-.627h1.071v.627h2.624v.888h-2.624v.613h2.48v.809h-2.48v.64h2.859v.9h-2.859v.587h1.762v1.41h1.1v.836h-1.1v1.449Zm3.865.483v1.318a.41.41,0,0,0,.47.457h2.741c.269,0,.444-.07.522-.209a3.458,3.458,0,0,0,.2-1.1l1.11.392a2.735,2.735,0,0,1-.432,1.566,1.78,1.78,0,0,1-1.358.392h-2.871a1.771,1.771,0,0,1-1.136-.3,1.522,1.522,0,0,1-.379-1.24v-1.266Zm2.454,1.344a11.739,11.739,0,0,0-1.526-.94l.535-.822q.821.366,1.579.8Zm4.27,1.083a6.9,6.9,0,0,0-.757-1.2q-.432-.561-.757-.992l.874-.574a12.6,12.6,0,0,1,1.632,2.036Z" transform="translate(1357.17 731.605)" fill="#334a44"/></g><g transform="translate(14.397 0)"><path d="M-1296.188-728.968v-1.083h1.71c-.044-.122-.112-.327-.209-.614a7.905,7.905,0,0,0-.353-.783l1.149-.156a6.777,6.777,0,0,1,.353.809l.234.744h1.384v1.083Zm.4.914h3.59v1.045h-3.59Zm0,1.971h3.538v1.032h-3.538Zm3.511,6.123h-2.4v.653h-1.071v-4.7h3.472Zm-1.07-3.068h-1.331v2.076h1.331Zm1.854-6.631h4.008q-.065-.587-.065-1.945h1.162q0,.483.013,1.018v.927h2.415v1.109h-2.415a26.168,26.168,0,0,0,.222,3.721,16.856,16.856,0,0,0,.953-2.742l1.057.431a34.064,34.064,0,0,1-1.684,4.256,6.982,6.982,0,0,0,.261,1.071q.274.9.457.9t.183-1.579v-.353l1.018.77q-.1,2.742-1.188,2.741-.484,0-.94-.718a5.348,5.348,0,0,1-.653-1.475,12.25,12.25,0,0,1-1.775,1.854l-.8-.9a7.29,7.29,0,0,0,2.232-2.428,30.462,30.462,0,0,1-.457-5.392v-.156h-2.859v1.4h2.351v.757a30.083,30.083,0,0,1-.131,3.12,2.647,2.647,0,0,1-.4,1.475,2.016,2.016,0,0,1-1.2.248c-.157,0-.287,0-.391-.013l-.379-1.1a15.646,15.646,0,0,1-.7,3.25l-1.019-1.018a16.881,16.881,0,0,0,.731-5.326Zm1.031,6.854q.679.053.875.052a.3.3,0,0,0,.313-.261,19.05,19.05,0,0,0,.17-3h-1.2v.235A24.634,24.634,0,0,1-1290.457-722.806Zm5.483-6.867a6.365,6.365,0,0,0-.94-1.332l.875-.535a6.23,6.23,0,0,1,1.017,1.188Z" transform="translate(1296.188 731.605)" fill="#334a44"/></g><g transform="translate(28.781 0)"><path d="M-1235.264-725.639a4.134,4.134,0,0,0,2.781-1.867h-2.611v-1.057h2.912a4.575,4.575,0,0,0,.157-1.149h-1.149a5.661,5.661,0,0,1-1.031.875l-.861-.744a5.191,5.191,0,0,0,2-2.023l1.1.209a4.223,4.223,0,0,1-.379.639h3.538v1.045h-2.01a6.987,6.987,0,0,1-.169,1.149h2.35v1.057h-2.558a19.576,19.576,0,0,1,2.6,1.54l-.783.875a11,11,0,0,0-1.344-1.005,6.26,6.26,0,0,0-.875-.535,6.036,6.036,0,0,1-2.924,2.023Zm1.71.64h9.569v5.692h-1.279v-.561h-7.01v.561h-1.279Zm8.29,1.071h-7.01v.966h7.01Zm0,1.958h-7.01v1.031h7.01Zm-2.976-8.721h4.857v4.818h-4.857Zm3.682,1.084h-2.507v2.663h2.507Z" transform="translate(1235.264 731.605)" fill="#334a44"/></g><g transform="translate(43.139 0.326)"><path d="M-1163.09-723.174v4.922h-1.149v-.313h-8.107v.313h-1.161v-4.922h3.381v-.522h-4.321v-.914h12.311v.914h-4.582v.522Zm-8.812-6.279h-1.149v3.643h4.752v.783h-5.77v-5.2h5.979v.77h-3.017l-.273.444h2.767v.613h-1.371l-.038.47h1.749v.653h-1.84a10.824,10.824,0,0,1,1.657.679l-.391.744a5.308,5.308,0,0,0-1.7-.849,2.919,2.919,0,0,1-1.854.888l-.365-.8a3.024,3.024,0,0,0,1.71-.666h-1.762v-.653h1.893l.039-.47h-.874l-.327.353-.679-.47A2.776,2.776,0,0,0-1171.9-729.453Zm7.663,8.316h-2.572a.877.877,0,0,1-.992-.992v-.235h-1.449a2.13,2.13,0,0,1-1.906,1.632l-.744-.81a1.877,1.877,0,0,0,1.593-.823h-2.036v1.632h8.107Zm-8.107,1.8h8.107v-.627h-8.107Zm4.542-3.839v-.522h-1.239v.522Zm4.139-6.24a.3.3,0,0,0,.339.339h.992v.718h-1.5q-.915,0-.913-.849v-.1h-1.685a1.859,1.859,0,0,1-1.2,1.306l-.666-.653a1.534,1.534,0,0,0,1.044-1.475v-.091h3.591Zm-3.447,2.219h-.81v-.783h5.131v.588a3.689,3.689,0,0,1-1.2,1.318,8.238,8.238,0,0,0,1.723.287l-.327.94a9.4,9.4,0,0,1-2.532-.6,7.788,7.788,0,0,1-2.663.47l-.457-.9h.17a7.56,7.56,0,0,0,1.619-.144,7.167,7.167,0,0,1-1.24-.836Zm.287,0a5.818,5.818,0,0,0,1.632.8,2.909,2.909,0,0,0,1.083-.8Zm2.585,4.83h-2.48v.209c0,.2.118.3.353.3h2.128Z" transform="translate(1174.448 730.223)" fill="#334a44"/></g></g><g transform="translate(-1798.627 -735.007)"><g transform="translate(0 0.147)"><path d="M-1791.32-652.944h.092l.262-.928h-2.773l-.272.928h.1a1.486,1.486,0,0,1,.489-.534,1.362,1.362,0,0,1,.663-.173l-.768,2.6a.922.922,0,0,1-.219.438.6.6,0,0,1-.381.1l-.03.094h1.711l.022-.094a.623.623,0,0,1-.32-.062.18.18,0,0,1-.078-.154,1.24,1.24,0,0,1,.063-.32l.767-2.6a.818.818,0,0,1,.523.167.535.535,0,0,1,.156.41C-1791.314-653.036-1791.316-652.993-1791.32-652.944Z" transform="translate(1794.158 653.872)" fill="#727170"/></g><g transform="translate(2.698 1.237)"><path d="M-1780.726-648.956a.33.33,0,0,0-.066-.22.216.216,0,0,0-.173-.077.413.413,0,0,0-.294.142,5.453,5.453,0,0,0-.712,1.286l.384-1.428h-.152l-.767.168-.023.074a.561.561,0,0,1,.174.017.146.146,0,0,1,.066.056.2.2,0,0,1,.024.107,1.332,1.332,0,0,1-.046.249l-.419,1.685h.616a7.123,7.123,0,0,1,.205-.731c.048-.128.118-.284.205-.469a2.412,2.412,0,0,1,.223-.395.554.554,0,0,1,.147-.149.106.106,0,0,1,.052-.015.068.068,0,0,1,.044.017.511.511,0,0,1,.07.11.165.165,0,0,0,.152.094.213.213,0,0,0,.171-.107A.7.7,0,0,0-1780.726-648.956Z" transform="translate(1782.732 649.253)" fill="#727170"/></g><g transform="translate(4.581 1.237)"><path d="M-1772.857-647.527l.493-1.69-.6.035-.092.313a.554.554,0,0,0-.127-.3.316.316,0,0,0-.229-.082.9.9,0,0,0-.549.234,2.045,2.045,0,0,0-.574.746,1.967,1.967,0,0,0-.218.822.891.891,0,0,0,.1.433.355.355,0,0,0,.338.192.538.538,0,0,0,.335-.122,2.5,2.5,0,0,0,.567-.717l-.061.206a1.569,1.569,0,0,0-.081.368.252.252,0,0,0,.076.189.3.3,0,0,0,.222.075.726.726,0,0,0,.44-.151,1.461,1.461,0,0,0,.386-.482l-.089-.046a2.07,2.07,0,0,1-.183.234.268.268,0,0,1-.147.081.065.065,0,0,1-.046-.023.083.083,0,0,1-.021-.054.333.333,0,0,1,.008-.056Zm-.56-.359a2.019,2.019,0,0,1-.3.46.319.319,0,0,1-.23.132.121.121,0,0,1-.1-.06.331.331,0,0,1-.045-.194,2.257,2.257,0,0,1,.2-.832,1.924,1.924,0,0,1,.366-.639.252.252,0,0,1,.164-.076.144.144,0,0,1,.124.063.531.531,0,0,1,.064.3A1.941,1.941,0,0,1-1773.417-647.886Z" transform="translate(1774.756 649.253)" fill="#727170"/></g><g transform="translate(6.991 1.237)"><path d="M-1762.162-647.446a1.006,1.006,0,0,1-.18.208.091.091,0,0,1-.053.02.054.054,0,0,1-.04-.02.069.069,0,0,1-.019-.046.986.986,0,0,1,.041-.186l.326-1.085a1.229,1.229,0,0,0,.061-.345.353.353,0,0,0-.095-.256.3.3,0,0,0-.225-.1.658.658,0,0,0-.315.091,1.7,1.7,0,0,0-.4.346,6.315,6.315,0,0,0-.475.653l.316-1.09h-.155l-.857.15-.028.1a.6.6,0,0,1,.174.016.134.134,0,0,1,.066.046.126.126,0,0,1,.02.072,1.454,1.454,0,0,1-.068.343l-.475,1.632h.648l.208-.755a3.572,3.572,0,0,1,.678-1,.379.379,0,0,1,.234-.132.077.077,0,0,1,.053.021.068.068,0,0,1,.023.05.584.584,0,0,1-.033.157l-.318,1.085a1.3,1.3,0,0,0-.061.318.265.265,0,0,0,.09.2.353.353,0,0,0,.247.081q.411,0,.785-.628l-.1-.058C-1762.123-647.505-1762.148-647.47-1762.162-647.446Z" transform="translate(1764.546 649.253)" fill="#727170"/></g><g transform="translate(9.66 1.237)"><path d="M-1751.667-647.221a.755.755,0,0,0,.1-.38.734.734,0,0,0-.085-.348,3.791,3.791,0,0,0-.488-.594.862.862,0,0,1-.148-.193.36.36,0,0,1-.033-.153.215.215,0,0,1,.076-.165.281.281,0,0,1,.193-.068.49.49,0,0,1,.357.175.751.751,0,0,1,.187.48h.094l.112-.785h-.092a.189.189,0,0,1-.16.084.8.8,0,0,1-.182-.028,1.683,1.683,0,0,0-.387-.056.8.8,0,0,0-.56.183.59.59,0,0,0-.2.457.626.626,0,0,0,.065.29,2.823,2.823,0,0,0,.392.5,2.122,2.122,0,0,1,.276.348.493.493,0,0,1,.059.231.279.279,0,0,1-.091.21.321.321,0,0,1-.231.088.48.48,0,0,1-.249-.078.581.581,0,0,1-.207-.208,2.054,2.054,0,0,1-.167-.438h-.081l-.125.846h.095a.261.261,0,0,1,.079-.08.21.21,0,0,1,.1-.019.871.871,0,0,1,.214.04,1.418,1.418,0,0,0,.363.059.876.876,0,0,0,.42-.108A.731.731,0,0,0-1751.667-647.221Z" transform="translate(1753.24 649.253)" fill="#727170"/></g><g transform="translate(10.7 0.068)"><path d="M-1746.193-652.965h-.369a2.246,2.246,0,0,1,.417-.94.426.426,0,0,1,.307-.186.071.071,0,0,1,.049.018.061.061,0,0,1,.019.046.252.252,0,0,1-.042.1.268.268,0,0,0-.043.135.2.2,0,0,0,.067.153.231.231,0,0,0,.167.063.241.241,0,0,0,.183-.077.29.29,0,0,0,.074-.21.306.306,0,0,0-.111-.244.545.545,0,0,0-.354-.094,1.156,1.156,0,0,0-.691.224,2.166,2.166,0,0,0-.589.74.6.6,0,0,1-.184.229.552.552,0,0,1-.276.048l-.084.3h.353l-.518,2.031q-.131.5-.176.617a.722.722,0,0,1-.2.289.183.183,0,0,1-.129.048.055.055,0,0,1-.036-.013l-.013-.018c0-.009.013-.026.038-.052a.167.167,0,0,0,.039-.12.194.194,0,0,0-.061-.147.243.243,0,0,0-.175-.058.317.317,0,0,0-.222.076.237.237,0,0,0-.083.18.244.244,0,0,0,.1.194.5.5,0,0,0,.318.083,1.066,1.066,0,0,0,.608-.179,1.481,1.481,0,0,0,.464-.553,5.715,5.715,0,0,0,.407-1.2l.3-1.175h.359Z" transform="translate(1748.836 654.205)" fill="#727170"/></g><g transform="translate(13.237 1.237)"><path d="M-1736.13-649.16a.806.806,0,0,0-.378-.093,1.272,1.272,0,0,0-.585.144,1.79,1.79,0,0,0-.5.373,1.967,1.967,0,0,0-.358.539,1.566,1.566,0,0,0-.142.662.718.718,0,0,0,.19.5.691.691,0,0,0,.535.206,1.408,1.408,0,0,0,.757-.237,1.779,1.779,0,0,0,.606-.65,1.675,1.675,0,0,0,.23-.823.752.752,0,0,0-.09-.366A.635.635,0,0,0-1736.13-649.16Zm-.376,1.024a3.674,3.674,0,0,1-.266.7,1.4,1.4,0,0,1-.275.41.273.273,0,0,1-.175.061.222.222,0,0,1-.168-.076.27.27,0,0,1-.071-.193,3,3,0,0,1,.224-1.061,2.131,2.131,0,0,1,.4-.749.329.329,0,0,1,.224-.079.189.189,0,0,1,.147.073.3.3,0,0,1,.064.2A2.7,2.7,0,0,1-1736.506-648.136Z" transform="translate(1738.092 649.253)" fill="#727170"/></g><g transform="translate(15.645 1.237)"><path d="M-1726-648.542a.7.7,0,0,0,.12-.414.325.325,0,0,0-.067-.22.217.217,0,0,0-.172-.077.413.413,0,0,0-.295.142,5.42,5.42,0,0,0-.712,1.286l.383-1.428h-.152l-.768.168-.022.074a.558.558,0,0,1,.174.017.146.146,0,0,1,.066.056.2.2,0,0,1,.024.107,1.312,1.312,0,0,1-.046.249l-.419,1.685h.616a7.147,7.147,0,0,1,.205-.731q.073-.192.206-.469a2.348,2.348,0,0,1,.222-.395.561.561,0,0,1,.146-.149.108.108,0,0,1,.053-.015.065.065,0,0,1,.043.017.448.448,0,0,1,.071.11.164.164,0,0,0,.153.094A.213.213,0,0,0-1726-648.542Z" transform="translate(1727.89 649.253)" fill="#727170"/></g><g transform="translate(17.477 1.237)"><path d="M-1716.57-647.464a1.086,1.086,0,0,1-.193.216.072.072,0,0,1-.048.018.05.05,0,0,1-.037-.018.056.056,0,0,1-.016-.038,1.32,1.32,0,0,1,.063-.272l.282-.948a1.586,1.586,0,0,0,.076-.422.318.318,0,0,0-.09-.235.306.306,0,0,0-.225-.09.483.483,0,0,0-.244.066,1.575,1.575,0,0,0-.389.351,7.391,7.391,0,0,0-.474.676l.114-.409a1.445,1.445,0,0,0,.068-.366.356.356,0,0,0-.074-.218.276.276,0,0,0-.238-.1.6.6,0,0,0-.289.079,1.561,1.561,0,0,0-.365.336,7.983,7.983,0,0,0-.477.679l.325-1.093h-.153l-.866.15-.025.1a.608.608,0,0,1,.176.016.137.137,0,0,1,.066.046.119.119,0,0,1,.021.07,1.44,1.44,0,0,1-.071.343l-.478,1.634h.648l.206-.729a4.463,4.463,0,0,1,.564-.917c.136-.165.235-.247.3-.247a.048.048,0,0,1,.034.015.042.042,0,0,1,.017.033.811.811,0,0,1-.038.186l-.475,1.66h.643l.155-.523a2.771,2.771,0,0,1,.144-.4,3.309,3.309,0,0,1,.26-.431,3.437,3.437,0,0,1,.288-.382.707.707,0,0,1,.149-.133.161.161,0,0,1,.066-.015.055.055,0,0,1,.036.017.05.05,0,0,1,.017.035,1.419,1.419,0,0,1-.058.256l-.288.991a1.358,1.358,0,0,0-.063.33.262.262,0,0,0,.1.2.356.356,0,0,0,.249.085.675.675,0,0,0,.388-.152,1.4,1.4,0,0,0,.385-.48l-.086-.056Z" transform="translate(1720.133 649.253)" fill="#727170"/></g><g transform="translate(22.117 0.068)"><path d="M-1700.109-653.458a.358.358,0,0,0,.264-.11.359.359,0,0,0,.109-.264.363.363,0,0,0-.108-.264.36.36,0,0,0-.266-.109.358.358,0,0,0-.264.109.366.366,0,0,0-.107.264.361.361,0,0,0,.109.264A.356.356,0,0,0-1700.109-653.458Z" transform="translate(1700.48 654.205)" fill="#727170"/></g><g transform="translate(21.423 1.237)"><path d="M-1702.2-649.253h-.153l-.862.14-.032.1.091,0a.19.19,0,0,1,.131.043.129.129,0,0,1,.049.1,1.039,1.039,0,0,1-.051.265l-.353,1.215a.906.906,0,0,0-.043.239.308.308,0,0,0,.1.235.364.364,0,0,0,.262.093c.289,0,.561-.223.817-.668l-.087-.051a1.566,1.566,0,0,1-.275.341.13.13,0,0,1-.086.038.07.07,0,0,1-.048-.024.074.074,0,0,1-.022-.053.972.972,0,0,1,.043-.2Z" transform="translate(1703.419 649.253)" fill="#727170"/></g><g transform="translate(22.674 1.237)"><path d="M-1695.66-647.553c-.034.047-.058.083-.073.107a1.037,1.037,0,0,1-.181.208.092.092,0,0,1-.053.02.056.056,0,0,1-.04-.02.068.068,0,0,1-.019-.046,1,1,0,0,1,.041-.186l.325-1.085a1.249,1.249,0,0,0,.062-.345.353.353,0,0,0-.1-.256.3.3,0,0,0-.225-.1.653.653,0,0,0-.314.091,1.686,1.686,0,0,0-.4.346,6.427,6.427,0,0,0-.475.653l.316-1.09h-.156l-.857.15-.028.1a.6.6,0,0,1,.173.016.133.133,0,0,1,.066.046.133.133,0,0,1,.02.072,1.506,1.506,0,0,1-.068.343l-.476,1.632h.648l.209-.755a3.566,3.566,0,0,1,.678-1,.38.38,0,0,1,.235-.132.076.076,0,0,1,.053.021.068.068,0,0,1,.023.05.613.613,0,0,1-.034.157l-.318,1.085a1.28,1.28,0,0,0-.061.318.265.265,0,0,0,.089.2.354.354,0,0,0,.247.081q.411,0,.785-.628Z" transform="translate(1698.117 649.253)" fill="#727170"/></g><g transform="translate(25.078 1.237)"><path d="M-1685.856-649.2a1.378,1.378,0,0,0-.384-.049,1.368,1.368,0,0,0-.6.125.95.95,0,0,0-.394.324.74.74,0,0,0-.133.421.617.617,0,0,0,.111.365.771.771,0,0,0,.359.255,1.455,1.455,0,0,0-.456.257.4.4,0,0,0-.136.3.326.326,0,0,0,.074.2.7.7,0,0,0,.209.157,1.365,1.365,0,0,0-.593.234.393.393,0,0,0-.139.287.424.424,0,0,0,.211.351,1.617,1.617,0,0,0,.91.2,1.421,1.421,0,0,0,.9-.237.7.7,0,0,0,.292-.556.555.555,0,0,0-.116-.356.815.815,0,0,0-.342-.242,4.893,4.893,0,0,0-.683-.181.421.421,0,0,1-.2-.086.1.1,0,0,1-.037-.079.111.111,0,0,1,.03-.073.772.772,0,0,1,.211-.137c.074.014.143.024.207.032a1.48,1.48,0,0,0,.175.012,1.256,1.256,0,0,0,.545-.117.879.879,0,0,0,.37-.312.769.769,0,0,0,.126-.427.6.6,0,0,0-.082-.285h.35l.081-.28h-.675A.7.7,0,0,0-1685.856-649.2Zm-.925,2.5a1.811,1.811,0,0,1,.5.181.257.257,0,0,1,.131.223.344.344,0,0,1-.142.271.739.739,0,0,1-.46.115.918.918,0,0,1-.556-.134.376.376,0,0,1-.174-.3.364.364,0,0,1,.088-.236.775.775,0,0,1,.329-.2C-1686.99-646.767-1686.9-646.74-1686.781-646.709Zm.724-1.615a1.15,1.15,0,0,1-.251.446.256.256,0,0,1-.181.072.244.244,0,0,1-.18-.073.267.267,0,0,1-.073-.2,1.666,1.666,0,0,1,.1-.554,1.018,1.018,0,0,1,.24-.417.3.3,0,0,1,.21-.081.229.229,0,0,1,.168.068.245.245,0,0,1,.068.181A1.723,1.723,0,0,1-1686.057-648.324Z" transform="translate(1687.938 649.253)" fill="#727170"/></g><g transform="translate(28.771 0.147)"><path d="M-1668.273-653.249a.869.869,0,0,1,.221-.422.587.587,0,0,1,.381-.107l.028-.094h-1.713l-.027.094a.712.712,0,0,1,.33.072.186.186,0,0,1,.068.155,1.2,1.2,0,0,1-.056.3l-.28.963h-1.26l.29-.963a.922.922,0,0,1,.218-.428.537.537,0,0,1,.353-.1l.039-.094h-1.685l-.029.094a.685.685,0,0,1,.322.072.188.188,0,0,1,.067.158,1.13,1.13,0,0,1-.056.3l-.641,2.206a.922.922,0,0,1-.209.428.548.548,0,0,1-.357.1l-.028.094h1.657l.026-.094a.581.581,0,0,1-.306-.062.175.175,0,0,1-.077-.148,1.193,1.193,0,0,1,.063-.313l.295-1.027h1.256l-.3,1.027a.921.921,0,0,1-.212.428.564.564,0,0,1-.36.1l-.038.094h1.68l.025-.094a.589.589,0,0,1-.323-.071.163.163,0,0,1-.068-.142,1.256,1.256,0,0,1,.063-.31Z" transform="translate(1672.296 653.872)" fill="#727170"/></g><g transform="translate(32.945 1.237)"><path d="M-1653.418-647.926a1.782,1.782,0,0,0,.5-.222,1.228,1.228,0,0,0,.371-.385.687.687,0,0,0,.106-.361.337.337,0,0,0-.109-.257.458.458,0,0,0-.323-.1,1.618,1.618,0,0,0-.841.251,1.88,1.88,0,0,0-.661.668,1.648,1.648,0,0,0-.242.834.728.728,0,0,0,.163.47.712.712,0,0,0,.586.2,1.271,1.271,0,0,0,.614-.15,2.052,2.052,0,0,0,.569-.5l-.076-.069a1.834,1.834,0,0,1-.416.3.81.81,0,0,1-.356.087.39.39,0,0,1-.3-.115.416.416,0,0,1-.11-.3,2.009,2.009,0,0,1,.023-.272A2.9,2.9,0,0,0-1653.418-647.926Zm-.01-.989a.41.41,0,0,1,.274-.171.134.134,0,0,1,.1.04.155.155,0,0,1,.039.112.885.885,0,0,1-.087.36,1.139,1.139,0,0,1-.205.318.787.787,0,0,1-.241.183,1.3,1.3,0,0,1-.347.09A2.411,2.411,0,0,1-1653.428-648.915Z" transform="translate(1654.616 649.253)" fill="#727170"/></g><g transform="translate(35.087 1.237)"><path d="M-1643.645-647.527l.493-1.69-.6.035-.092.313a.554.554,0,0,0-.127-.3.317.317,0,0,0-.229-.082.9.9,0,0,0-.548.234,2.042,2.042,0,0,0-.574.746,1.968,1.968,0,0,0-.219.822.89.89,0,0,0,.1.433.354.354,0,0,0,.338.192.537.537,0,0,0,.335-.122,2.5,2.5,0,0,0,.567-.717l-.06.206a1.54,1.54,0,0,0-.083.368.255.255,0,0,0,.076.189.3.3,0,0,0,.222.075.729.729,0,0,0,.441-.151,1.461,1.461,0,0,0,.386-.482l-.089-.046a2.084,2.084,0,0,1-.184.234.266.266,0,0,1-.147.081.063.063,0,0,1-.045-.023.08.08,0,0,1-.021-.054.361.361,0,0,1,.007-.056Zm-.558-.359a2.022,2.022,0,0,1-.3.46.32.32,0,0,1-.231.132.123.123,0,0,1-.1-.06.332.332,0,0,1-.044-.194,2.253,2.253,0,0,1,.2-.832,1.886,1.886,0,0,1,.366-.639.25.25,0,0,1,.163-.076.146.146,0,0,1,.125.063.536.536,0,0,1,.064.3A1.943,1.943,0,0,1-1644.2-647.886Z" transform="translate(1645.543 649.253)" fill="#727170"/></g><g transform="translate(37.507 0.068)"><path d="M-1634.482-650.982a.129.129,0,0,1-.087.035.063.063,0,0,1-.047-.023.079.079,0,0,1-.021-.056,1.624,1.624,0,0,1,.074-.317l.841-2.862h-.153l-.856.15-.028.1a.34.34,0,0,1,.216.043.111.111,0,0,1,.054.1,1.211,1.211,0,0,1-.056.257l-.687,2.343a1.261,1.261,0,0,0-.061.3.284.284,0,0,0,.1.217.382.382,0,0,0,.267.09.582.582,0,0,0,.34-.112,1.883,1.883,0,0,0,.475-.552l-.1-.046A1.42,1.42,0,0,1-1634.482-650.982Z" transform="translate(1635.293 654.205)" fill="#727170"/></g><g transform="translate(38.821 0.617)"><path d="M-1628.925-649.168a.145.145,0,0,1-.089.035.069.069,0,0,1-.051-.024.082.082,0,0,1-.023-.057.8.8,0,0,1,.041-.208l.424-1.474h.328l.088-.292h-.332l.2-.691h-.132a3.542,3.542,0,0,1-.538.516,2.329,2.329,0,0,1-.549.279l-.051.188h.345l-.4,1.375a1.446,1.446,0,0,0-.066.379.29.29,0,0,0,.094.222.385.385,0,0,0,.269.088.744.744,0,0,0,.415-.142,1.339,1.339,0,0,0,.387-.448l-.09-.056A1.406,1.406,0,0,1-1628.925-649.168Z" transform="translate(1629.727 651.88)" fill="#727170"/></g><g transform="translate(40.075 0.068)"><path d="M-1622.034-651.229a.83.83,0,0,1-.174.2.094.094,0,0,1-.061.026.053.053,0,0,1-.041-.019.061.061,0,0,1-.018-.042.844.844,0,0,1,.043-.191l.323-1.082a1.269,1.269,0,0,0,.061-.343.362.362,0,0,0-.094-.261.293.293,0,0,0-.222-.1.673.673,0,0,0-.319.09,1.684,1.684,0,0,0-.4.347q-.154.179-.5.684l.661-2.29h-.153l-.845.15-.018.1a.317.317,0,0,1,.2.04.113.113,0,0,1,.051.1,1.083,1.083,0,0,1-.051.262l-.833,2.872h.63l.226-.755a3.486,3.486,0,0,1,.661-.981.444.444,0,0,1,.251-.153.07.07,0,0,1,.05.021.069.069,0,0,1,.021.05.69.69,0,0,1-.03.163l-.316,1.082a1.247,1.247,0,0,0-.061.318.265.265,0,0,0,.089.2.353.353,0,0,0,.247.081.663.663,0,0,0,.372-.135,1.636,1.636,0,0,0,.414-.5l-.1-.056C-1621.995-651.288-1622.019-651.253-1622.034-651.229Z" transform="translate(1624.415 654.205)" fill="#727170"/></g><g transform="translate(42.887 1.237)"><path d="M-1610.862-648.9a.3.3,0,0,0-.137.239.247.247,0,0,0,.077.18.267.267,0,0,0,.195.076.323.323,0,0,0,.244-.119.415.415,0,0,0,.11-.29.4.4,0,0,0-.146-.315.64.64,0,0,0-.432-.127,1.36,1.36,0,0,0-.73.235,1.77,1.77,0,0,0-.6.638,1.655,1.655,0,0,0-.226.82.835.835,0,0,0,.084.362.606.606,0,0,0,.261.275.828.828,0,0,0,.406.1,1.3,1.3,0,0,0,.657-.183,1.88,1.88,0,0,0,.486-.432l-.076-.069a1.2,1.2,0,0,1-.36.254.871.871,0,0,1-.352.084.42.42,0,0,1-.321-.148.57.57,0,0,1-.135-.4,1.886,1.886,0,0,1,.132-.666,1.49,1.49,0,0,1,.382-.58.584.584,0,0,1,.4-.173.206.206,0,0,1,.133.041.087.087,0,0,1,.037.073C-1610.769-648.986-1610.8-648.945-1610.862-648.9Z" transform="translate(1612.504 649.253)" fill="#727170"/></g><g transform="translate(45.006 1.237)"><path d="M-1601.632-647.527l.493-1.69-.6.035-.092.313a.552.552,0,0,0-.128-.3.316.316,0,0,0-.228-.082.9.9,0,0,0-.549.234,2.039,2.039,0,0,0-.574.746,1.981,1.981,0,0,0-.218.822.893.893,0,0,0,.1.433.355.355,0,0,0,.338.192.541.541,0,0,0,.336-.122,2.5,2.5,0,0,0,.566-.717l-.06.206a1.58,1.58,0,0,0-.082.368.255.255,0,0,0,.076.189.3.3,0,0,0,.222.075.728.728,0,0,0,.44-.151,1.454,1.454,0,0,0,.385-.482l-.089-.046a2.018,2.018,0,0,1-.184.234.267.267,0,0,1-.146.081.062.062,0,0,1-.045-.023.08.08,0,0,1-.021-.054.287.287,0,0,1,.007-.056Zm-.56-.359a1.966,1.966,0,0,1-.3.46.319.319,0,0,1-.231.132.123.123,0,0,1-.1-.06.332.332,0,0,1-.044-.194,2.263,2.263,0,0,1,.2-.832,1.9,1.9,0,0,1,.367-.639.249.249,0,0,1,.162-.076.144.144,0,0,1,.125.063.53.53,0,0,1,.064.3A1.931,1.931,0,0,1-1602.191-647.886Z" transform="translate(1603.53 649.253)" fill="#727170"/></g><g transform="translate(47.439 1.237)"><path d="M-1591.285-649.176a.215.215,0,0,0-.173-.077.415.415,0,0,0-.295.142,5.461,5.461,0,0,0-.712,1.286l.384-1.428h-.153l-.767.168-.023.074a.559.559,0,0,1,.174.017.141.141,0,0,1,.066.056.2.2,0,0,1,.025.107,1.287,1.287,0,0,1-.047.249l-.419,1.685h.615a7.1,7.1,0,0,1,.206-.731c.049-.128.118-.284.206-.469a2.43,2.43,0,0,1,.222-.395.584.584,0,0,1,.146-.149.114.114,0,0,1,.054-.015.068.068,0,0,1,.043.017.45.45,0,0,1,.07.11.166.166,0,0,0,.153.094.214.214,0,0,0,.171-.107.706.706,0,0,0,.118-.414A.328.328,0,0,0-1591.285-649.176Z" transform="translate(1593.224 649.253)" fill="#727170"/></g><g transform="translate(49.334 1.237)"><path d="M-1583.454-649.253a1.616,1.616,0,0,0-.84.251,1.87,1.87,0,0,0-.661.668,1.644,1.644,0,0,0-.242.834.729.729,0,0,0,.162.47.715.715,0,0,0,.587.2,1.269,1.269,0,0,0,.613-.15,2.038,2.038,0,0,0,.569-.5l-.077-.069a1.858,1.858,0,0,1-.415.3.817.817,0,0,1-.357.087.39.39,0,0,1-.3-.115.419.419,0,0,1-.11-.3,1.977,1.977,0,0,1,.022-.272,2.909,2.909,0,0,0,.5-.076,1.789,1.789,0,0,0,.5-.222,1.221,1.221,0,0,0,.371-.385.682.682,0,0,0,.107-.361.337.337,0,0,0-.11-.257A.46.46,0,0,0-1583.454-649.253Zm-.228.68a1.128,1.128,0,0,1-.2.318.8.8,0,0,1-.242.183,1.3,1.3,0,0,1-.346.09,2.418,2.418,0,0,1,.465-.932.408.408,0,0,1,.274-.171.134.134,0,0,1,.1.04.155.155,0,0,1,.039.112A.88.88,0,0,1-1583.682-648.573Z" transform="translate(1585.197 649.253)" fill="#727170"/></g><g transform="translate(52.933 0.147)"><path d="M-1567.787-653.651a.822.822,0,0,1,.524.167.538.538,0,0,1,.155.41c0,.038,0,.081-.005.13h.091l.262-.928h-2.773l-.272.928h.1a1.484,1.484,0,0,1,.488-.534,1.364,1.364,0,0,1,.664-.173l-.768,2.6a.934.934,0,0,1-.219.438.6.6,0,0,1-.382.1l-.03.094h1.711l.022-.094a.624.624,0,0,1-.32-.062.181.181,0,0,1-.078-.154,1.269,1.269,0,0,1,.063-.32Z" transform="translate(1569.952 653.872)" fill="#727170"/></g><g transform="translate(55.605 0.068)"><path d="M-1556.252-651.229a.83.83,0,0,1-.173.2.094.094,0,0,1-.061.026.053.053,0,0,1-.041-.019.061.061,0,0,1-.016-.042.816.816,0,0,1,.042-.191l.324-1.082a1.266,1.266,0,0,0,.061-.343.364.364,0,0,0-.093-.261.3.3,0,0,0-.223-.1.676.676,0,0,0-.319.09,1.66,1.66,0,0,0-.4.347c-.1.119-.269.347-.5.684l.661-2.29h-.152l-.846.15-.018.1a.318.318,0,0,1,.2.04.114.114,0,0,1,.051.1,1.11,1.11,0,0,1-.051.262l-.834,2.872h.631l.227-.755a3.473,3.473,0,0,1,.661-.981.441.441,0,0,1,.252-.153.069.069,0,0,1,.049.021.069.069,0,0,1,.021.05.705.705,0,0,1-.03.163l-.316,1.082a1.222,1.222,0,0,0-.062.318.266.266,0,0,0,.089.2.354.354,0,0,0,.248.081.663.663,0,0,0,.37-.135,1.614,1.614,0,0,0,.415-.5l-.1-.056C-1556.213-651.288-1556.238-651.253-1556.252-651.229Z" transform="translate(1558.634 654.205)" fill="#727170"/></g><g transform="translate(58.37 1.237)"><path d="M-1544.985-649.176a.217.217,0,0,0-.173-.077.413.413,0,0,0-.294.142,5.448,5.448,0,0,0-.712,1.286l.384-1.428h-.151l-.768.168-.023.074a.555.555,0,0,1,.174.017.139.139,0,0,1,.066.056.2.2,0,0,1,.025.107,1.362,1.362,0,0,1-.046.249l-.419,1.685h.616a7.147,7.147,0,0,1,.205-.731c.048-.128.118-.284.205-.469a2.456,2.456,0,0,1,.223-.395.567.567,0,0,1,.146-.149.111.111,0,0,1,.054-.015.068.068,0,0,1,.043.017.513.513,0,0,1,.07.11.166.166,0,0,0,.153.094.215.215,0,0,0,.172-.107.7.7,0,0,0,.119-.414A.335.335,0,0,0-1544.985-649.176Z" transform="translate(1546.925 649.253)" fill="#727170"/></g><g transform="translate(60.278 1.237)"><path d="M-1536.882-649.16a.807.807,0,0,0-.378-.093,1.275,1.275,0,0,0-.585.144,1.787,1.787,0,0,0-.5.373,1.95,1.95,0,0,0-.359.539,1.559,1.559,0,0,0-.141.662.714.714,0,0,0,.189.5.691.691,0,0,0,.535.206,1.408,1.408,0,0,0,.757-.237,1.775,1.775,0,0,0,.607-.65,1.681,1.681,0,0,0,.23-.823.747.747,0,0,0-.091-.366A.624.624,0,0,0-1536.882-649.16Zm-.375,1.024a3.7,3.7,0,0,1-.267.7,1.388,1.388,0,0,1-.274.41.273.273,0,0,1-.176.061.221.221,0,0,1-.167-.076.271.271,0,0,1-.072-.193,3.01,3.01,0,0,1,.224-1.061,2.118,2.118,0,0,1,.4-.749.327.327,0,0,1,.224-.079.191.191,0,0,1,.147.073.3.3,0,0,1,.063.2A2.717,2.717,0,0,1-1537.257-648.136Z" transform="translate(1538.842 649.253)" fill="#727170"/></g><g transform="translate(62.774 1.237)"><path d="M-1525.933-647.525a1.478,1.478,0,0,1-.241.3.1.1,0,0,1-.069.031.055.055,0,0,1-.04-.022.063.063,0,0,1-.018-.042,1.789,1.789,0,0,1,.061-.244l.488-1.677-.643.023-.232.778a4.4,4.4,0,0,1-.587.869c-.131.139-.235.209-.313.209a.065.065,0,0,1-.048-.02.041.041,0,0,1-.018-.036.706.706,0,0,1,.036-.165l.493-1.728h-.152l-.868.15-.024.1a.6.6,0,0,1,.173.016.13.13,0,0,1,.068.046.119.119,0,0,1,.02.067,1.5,1.5,0,0,1-.071.335l-.287,1.017a1.307,1.307,0,0,0-.064.348.339.339,0,0,0,.1.252.311.311,0,0,0,.232.1.636.636,0,0,0,.3-.084,1.617,1.617,0,0,0,.385-.336,7.67,7.67,0,0,0,.48-.648l-.125.43a1.285,1.285,0,0,0-.063.348.268.268,0,0,0,.09.209.358.358,0,0,0,.247.08q.425,0,.778-.638Z" transform="translate(1528.269 649.253)" fill="#727170"/></g><g transform="translate(65.066 1.237)"><path d="M-1515.685-648.819l.081-.28h-.676a.7.7,0,0,0-.2-.106,1.375,1.375,0,0,0-.384-.049,1.361,1.361,0,0,0-.6.125.943.943,0,0,0-.394.324.738.738,0,0,0-.134.421.617.617,0,0,0,.111.365.775.775,0,0,0,.36.255,1.452,1.452,0,0,0-.456.257.4.4,0,0,0-.136.3.323.323,0,0,0,.074.2.676.676,0,0,0,.207.157,1.355,1.355,0,0,0-.592.234.391.391,0,0,0-.139.287.424.424,0,0,0,.211.351,1.615,1.615,0,0,0,.91.2,1.424,1.424,0,0,0,.9-.237.7.7,0,0,0,.292-.556.562.562,0,0,0-.116-.356.821.821,0,0,0-.342-.242,4.926,4.926,0,0,0-.684-.181.419.419,0,0,1-.2-.086.1.1,0,0,1-.037-.079.117.117,0,0,1,.029-.073.807.807,0,0,1,.212-.137c.074.014.144.024.207.032a1.474,1.474,0,0,0,.174.012,1.252,1.252,0,0,0,.545-.117.881.881,0,0,0,.371-.312.774.774,0,0,0,.126-.427.6.6,0,0,0-.082-.285Zm-1.721,2.11a1.824,1.824,0,0,1,.5.181.258.258,0,0,1,.13.223.344.344,0,0,1-.142.271.736.736,0,0,1-.46.115.92.92,0,0,1-.556-.134.378.378,0,0,1-.174-.3.37.37,0,0,1,.087-.236.792.792,0,0,1,.329-.2C-1517.614-646.767-1517.521-646.74-1517.406-646.709Zm.725-1.615a1.15,1.15,0,0,1-.252.446.255.255,0,0,1-.182.072.242.242,0,0,1-.178-.073.266.266,0,0,1-.072-.2,1.67,1.67,0,0,1,.1-.554,1,1,0,0,1,.24-.417.3.3,0,0,1,.21-.081.232.232,0,0,1,.169.068.247.247,0,0,1,.068.181A1.725,1.725,0,0,1-1516.681-648.324Z" transform="translate(1518.562 649.253)" fill="#727170"/></g><g transform="translate(67.845 0.068)"><path d="M-1504.409-651.229a.849.849,0,0,1-.173.2.1.1,0,0,1-.062.026.053.053,0,0,1-.04-.019.06.06,0,0,1-.018-.042.823.823,0,0,1,.044-.191l.323-1.082a1.25,1.25,0,0,0,.06-.343.368.368,0,0,0-.091-.261.3.3,0,0,0-.223-.1.676.676,0,0,0-.319.09,1.65,1.65,0,0,0-.4.347,8.4,8.4,0,0,0-.5.684l.661-2.29h-.152l-.847.15-.018.1a.317.317,0,0,1,.2.04.116.116,0,0,1,.051.1,1.162,1.162,0,0,1-.051.262l-.834,2.872h.63l.227-.755a3.447,3.447,0,0,1,.661-.981.443.443,0,0,1,.251-.153.067.067,0,0,1,.049.021.066.066,0,0,1,.022.05.734.734,0,0,1-.03.163l-.315,1.082a1.222,1.222,0,0,0-.062.318.265.265,0,0,0,.089.2.351.351,0,0,0,.246.081.662.662,0,0,0,.372-.135,1.618,1.618,0,0,0,.413-.5l-.1-.056C-1504.37-651.288-1504.394-651.253-1504.409-651.229Z" transform="translate(1506.791 654.205)" fill="#727170"/></g><g transform="translate(71.094 0)"><path d="M-1489.649-650.924a.687.687,0,0,1-.252-.03.227.227,0,0,1-.1-.087.208.208,0,0,1-.026-.117c0-.028,0-.094.02-.257l.266-2.918h-.19l-2.065,2.809a3.107,3.107,0,0,1-.415.49.474.474,0,0,1-.292.111l-.045,0-.065.219h1.146l.065-.218-.082,0a.293.293,0,0,1-.177-.047.116.116,0,0,1-.044-.091.27.27,0,0,1,.025-.1,1.319,1.319,0,0,1,.142-.216l.33-.446h.878l-.034.365a1.856,1.856,0,0,1-.049.352.249.249,0,0,1-.09.129.408.408,0,0,1-.232.06h-.106l-.065.221h1.481l.065-.221Zm-.75-2.281-.1,1.064h-.678Z" transform="translate(1492.867 654.372)" fill="#727170"/><path d="M-1489.764-650.788h-1.56l.088-.3h.133a.37.37,0,0,0,.211-.053.215.215,0,0,0,.076-.111,1.819,1.819,0,0,0,.047-.343l.03-.325h-.818l-.318.431a1.26,1.26,0,0,0-.138.209.231.231,0,0,0-.022.09.078.078,0,0,0,.031.063.27.27,0,0,0,.154.038l.131,0-.087.291h-1.224l.087-.293.073,0a.438.438,0,0,0,.27-.1,3.076,3.076,0,0,0,.408-.483l2.076-2.825h.25l-.27,2.959c-.016.162-.02.227-.02.254a.169.169,0,0,0,.019.1.194.194,0,0,0,.088.074.652.652,0,0,0,.236.027h.136Zm-1.459-.075h1.4l.043-.146h-.035a.745.745,0,0,1-.266-.033.266.266,0,0,1-.12-.1.244.244,0,0,1-.032-.138c0-.041.007-.128.02-.261l.263-2.877h-.13l-2.053,2.794a3.14,3.14,0,0,1-.421.5.51.51,0,0,1-.314.119h-.019l-.043.145h1.067l.043-.145h-.034a.323.323,0,0,1-.2-.057.153.153,0,0,1-.057-.119.307.307,0,0,1,.028-.12,1.408,1.408,0,0,1,.146-.224l.34-.461h.938l-.037.407a1.99,1.99,0,0,1-.052.362.286.286,0,0,1-.1.147.443.443,0,0,1-.253.066h-.077Zm.592-1.363h-.787l.906-1.234Zm-.638-.075h.57l.087-.894Z" transform="translate(1493.029 654.494)" fill="#727170"/></g><g transform="translate(74.308 0.078)"><path d="M-1477.05-653.753a.488.488,0,0,1,.211-.029h.048l.066-.221h-1.455l-.071.221h.087a.818.818,0,0,1,.24.02.144.144,0,0,1,.07.047.124.124,0,0,1,.021.074,1.482,1.482,0,0,1-.073.371l-.6,2.066a1.508,1.508,0,0,1-.163.405.29.29,0,0,1-.138.1.79.79,0,0,1-.256.03h-.043l-.083.219h1.548l.064-.215-.079-.005a1.269,1.269,0,0,1-.273-.036.138.138,0,0,1-.07-.045.117.117,0,0,1-.02-.07,1.736,1.736,0,0,1,.078-.346l.594-2.066a1.775,1.775,0,0,1,.146-.4A.315.315,0,0,1-1477.05-653.753Z" transform="translate(1479.239 654.041)" fill="#727170"/><path d="M-1477.784-650.535h-1.631l.111-.294h.068a.775.775,0,0,0,.242-.027.259.259,0,0,0,.123-.085,1.483,1.483,0,0,0,.157-.394l.6-2.066a1.455,1.455,0,0,0,.072-.361.087.087,0,0,0-.014-.052.108.108,0,0,0-.052-.034.793.793,0,0,0-.227-.018h-.139l.1-.3h1.532l-.088.3h-.077a.466.466,0,0,0-.194.025h0a.276.276,0,0,0-.13.106,1.781,1.781,0,0,0-.141.388l-.594,2.066a1.678,1.678,0,0,0-.077.336.081.081,0,0,0,.013.049.1.1,0,0,0,.052.031,1.239,1.239,0,0,0,.263.034l.126.009Zm-1.523-.075h1.466l.043-.143-.033,0a1.373,1.373,0,0,1-.283-.038.176.176,0,0,1-.088-.059.153.153,0,0,1-.027-.092,1.908,1.908,0,0,1,.08-.356l.594-2.066a1.933,1.933,0,0,1,.15-.408.353.353,0,0,1,.163-.135.494.494,0,0,1,.228-.033h.02l.043-.146h-1.377l-.047.145h.036a.915.915,0,0,1,.252.022.177.177,0,0,1,.087.06.156.156,0,0,1,.028.1,1.5,1.5,0,0,1-.075.382l-.6,2.066a1.537,1.537,0,0,1-.168.417.323.323,0,0,1-.155.111.9.9,0,0,1-.269.032h-.017Z" transform="translate(1479.415 654.162)" fill="#727170"/></g><g transform="translate(76.363 1.218)"><path d="M-1469.012-649.178a1.4,1.4,0,0,0-.724.226,1.688,1.688,0,0,0-.593.614,1.56,1.56,0,0,0-.222.777.844.844,0,0,0,.237.617.823.823,0,0,0,.61.24,1.412,1.412,0,0,0,.73-.227,1.592,1.592,0,0,0,.582-.612,1.632,1.632,0,0,0,.208-.78.844.844,0,0,0-.234-.615A.8.8,0,0,0-1469.012-649.178Zm-.694.759c.195-.332.406-.5.629-.5a.32.32,0,0,1,.25.1.455.455,0,0,1,.1.317,2.043,2.043,0,0,1-.3,1.043c-.195.33-.4.5-.613.5a.337.337,0,0,1-.259-.11.465.465,0,0,1-.1-.327A2.021,2.021,0,0,1-1469.707-648.419Z" transform="translate(1470.589 649.216)" fill="#727170"/><path d="M-1469.827-646.788a.859.859,0,0,1-.636-.251.88.88,0,0,1-.248-.643,1.6,1.6,0,0,1,.227-.8,1.73,1.73,0,0,1,.606-.628,1.439,1.439,0,0,1,.743-.232.838.838,0,0,1,.621.25.88.88,0,0,1,.245.641,1.669,1.669,0,0,1-.213.8,1.634,1.634,0,0,1-.6.627A1.451,1.451,0,0,1-1469.827-646.788Zm.692-2.474a1.362,1.362,0,0,0-.7.221,1.648,1.648,0,0,0-.58.6,1.522,1.522,0,0,0-.217.758.808.808,0,0,0,.226.59.786.786,0,0,0,.583.229,1.378,1.378,0,0,0,.711-.221,1.558,1.558,0,0,0,.569-.6,1.6,1.6,0,0,0,.2-.763.809.809,0,0,0-.224-.589A.767.767,0,0,0-1469.135-649.262Zm-.634,2.22a.371.371,0,0,1-.286-.122.5.5,0,0,1-.114-.352,2.059,2.059,0,0,1,.309-1.044c.2-.344.424-.519.661-.519a.356.356,0,0,1,.277.117.489.489,0,0,1,.108.342,2.08,2.08,0,0,1-.308,1.062C-1469.325-647.215-1469.542-647.042-1469.769-647.042Zm.568-1.962c-.208,0-.409.162-.6.482h0a1.986,1.986,0,0,0-.3,1.006.43.43,0,0,0,.094.3.3.3,0,0,0,.232.1c.2,0,.393-.161.581-.479a2,2,0,0,0,.3-1.023.419.419,0,0,0-.088-.292A.281.281,0,0,0-1469.2-649Z" transform="translate(1470.711 649.337)" fill="#727170"/></g><g transform="translate(79.099 0.078)"><path d="M-1458.476-654l-.273,1.036h.225l.012-.047a1.107,1.107,0,0,1,.171-.387.643.643,0,0,1,.266-.2,1.193,1.193,0,0,1,.451-.071h.12l-.686,2.351a3.092,3.092,0,0,1-.161.464.319.319,0,0,1-.109.131.543.543,0,0,1-.271.054h-.113l-.066.22h1.621l.072-.22h-.2a.42.42,0,0,1-.247-.049.128.128,0,0,1-.056-.107,2.813,2.813,0,0,1,.126-.531l.664-2.313h.222c.3,0,.381.039.4.056a.277.277,0,0,1,.091.229,1.485,1.485,0,0,1-.046.341l-.019.078h.224l.319-1.036Z" transform="translate(1458.959 654.041)" fill="#727170"/><path d="M-1457.423-650.535h-1.7l.088-.3h.141a.506.506,0,0,0,.251-.049.286.286,0,0,0,.095-.116,2.872,2.872,0,0,0,.158-.457l.672-2.3h-.07a1.157,1.157,0,0,0-.437.068.609.609,0,0,0-.251.188,1.058,1.058,0,0,0-.164.374l-.02.075h-.3l.293-1.111h2.817l-.343,1.111h-.3l.03-.125a1.453,1.453,0,0,0,.045-.332.243.243,0,0,0-.077-.2c-.006,0-.067-.047-.378-.047h-.194l-.656,2.286a2.777,2.777,0,0,0-.125.52.09.09,0,0,0,.041.077.381.381,0,0,0,.224.042h.255Zm-1.6-.075h1.544l.047-.145h-.152a.465.465,0,0,1-.27-.057.164.164,0,0,1-.07-.137,3.056,3.056,0,0,1,.128-.541l.672-2.34h.251a.844.844,0,0,1,.425.065.312.312,0,0,1,.1.258,1.519,1.519,0,0,1-.048.35l-.007.032h.148l.3-.961h-2.657l-.254.961h.147l.005-.019a1.134,1.134,0,0,1,.177-.4.684.684,0,0,1,.281-.212,1.23,1.23,0,0,1,.466-.074h.17l-.7,2.4a3.1,3.1,0,0,1-.163.471.358.358,0,0,1-.123.145.577.577,0,0,1-.29.06h-.085Z" transform="translate(1459.122 654.162)" fill="#727170"/></g></g><g transform="translate(-1800.008 -750.006)"><path d="M-1703.126-698.129h-.006a.451.451,0,0,1-.438-.372l-2.967-16.754-2.44,11.11a.45.45,0,0,1-.4.352.451.451,0,0,1-.456-.276l-1.771-4.274-1.255,2.546a.45.45,0,0,1-.4.251h-86.745v-.9h86.465l1.571-3.187a.454.454,0,0,1,.419-.251.45.45,0,0,1,.4.278l1.6,3.868,2.62-11.929a.451.451,0,0,1,.44-.354h.01a.45.45,0,0,1,.434.372l2.953,16.674,1.436-6.976a.45.45,0,0,1,.441-.36h3.838v.9h-3.471l-1.837,8.923A.451.451,0,0,1-1703.126-698.129Z" transform="translate(1800.008 718.022)" fill="#727170"/></g><g transform="translate(-1798.116 -757.098)"><path d="M-1787.682-744.9l1.338-.684a3.719,3.719,0,0,0-2.44-2.333,3.674,3.674,0,0,0-3.207.576l.687,1.324a2.645,2.645,0,0,1,1.316-.413A2.6,2.6,0,0,1-1787.682-744.9Z" transform="translate(1791.992 748.063)" fill="#8ebb28"/></g><g transform="translate(-1799.343 -759.89)"><path d="M-1792.453-758l.027.009a4.742,4.742,0,0,1,3.005,2.9l1.4-.74a6.08,6.08,0,0,0-3.946-3.827,6.023,6.023,0,0,0-5.219.907l.783,1.509a4.589,4.589,0,0,1,3.793-.8l.119.03Z" transform="translate(1797.191 759.89)" fill="#8ebb28"/></g></g></g></svg>