<svg xmlns="http://www.w3.org/2000/svg" width="16" height="16" viewBox="0 0 16 16"><rect width="16" height="16" fill="#1292be" opacity="0"/><g transform="translate(-4.5 -4.5)"><path d="M42,8v5.778" transform="translate(-23 -1.278)" fill="rgba(0,0,0,0)"/><path d="M42,14.328a.55.55,0,0,1-.55-.55V8a.55.55,0,1,1,1.1,0v5.778A.55.55,0,0,1,42,14.328Z" transform="translate(-23 -1.278)" /><path d="M6,24v5.778" transform="translate(0 -11.5)" fill="rgba(0,0,0,0)"/><path d="M6,30.328a.55.55,0,0,1-.55-.55V24a.55.55,0,1,1,1.1,0v5.778A.55.55,0,0,1,6,30.328Z" transform="translate(0 -11.5)" /><path d="M6,12.5a6.5,6.5,0,0,0,11.014,4.677" transform="translate(0 0)" fill="rgba(0,0,0,0)"/><path d="M12.5,19.55A7.058,7.058,0,0,1,5.45,12.5a.55.55,0,1,1,1.1,0,5.95,5.95,0,0,0,10.082,4.281.55.55,0,1,1,.764.791A7.015,7.015,0,0,1,12.5,19.55Z" transform="translate(0 0)" /><path d="M19,12.5A6.5,6.5,0,0,0,7.823,7.986" transform="translate(0 0)" fill="rgba(0,0,0,0)"/><path d="M19,13.05a.55.55,0,0,1-.55-.55A5.95,5.95,0,0,0,8.219,8.368.55.55,0,1,1,7.427,7.6,7.05,7.05,0,0,1,19.55,12.5.55.55,0,0,1,19,13.05Z" transform="translate(0 0)" /></g></svg>