<svg xmlns="http://www.w3.org/2000/svg" width="24" height="24" viewBox="0 0 24 24"><g transform="translate(4 4)"><rect width="24" height="24" transform="translate(-4 -4)" opacity="0"/><path d="M-.333-1.5h10A1.168,1.168,0,0,1,10.833-.333v6A1.168,1.168,0,0,1,9.667,6.833h-10A1.168,1.168,0,0,1-1.5,5.667v-6A1.168,1.168,0,0,1-.333-1.5Zm10,7.333a.167.167,0,0,0,.167-.167v-6A.167.167,0,0,0,9.667-.5h-10A.167.167,0,0,0-.5-.333v6a.167.167,0,0,0,.167.167Z" transform="translate(3.333 8.349)"/><path d="M-.333-1.625h10A1.293,1.293,0,0,1,10.958-.333v6A1.293,1.293,0,0,1,9.667,6.958h-10A1.293,1.293,0,0,1-1.625,5.667v-6A1.293,1.293,0,0,1-.333-1.625Zm10,8.333a1.043,1.043,0,0,0,1.042-1.042v-6A1.043,1.043,0,0,0,9.667-1.375h-10A1.043,1.043,0,0,0-1.375-.333v6A1.043,1.043,0,0,0-.333,6.708Zm-10-7.333h10a.292.292,0,0,1,.292.292v6a.292.292,0,0,1-.292.292h-10a.292.292,0,0,1-.292-.292v-6A.292.292,0,0,1-.333-.625Zm10,6.333a.042.042,0,0,0,.042-.042v-6a.042.042,0,0,0-.042-.042h-10a.042.042,0,0,0-.042.042v6a.042.042,0,0,0,.042.042Z" transform="translate(3.333 8.349)"/><path d="M13,9.5a.5.5,0,0,1-.5-.5V6.335a3.8,3.8,0,0,1,1-2.573,3.893,3.893,0,0,1,5.159-.516,3.821,3.821,0,0,1,1.5,2.323.5.5,0,0,1-.98.2,2.87,2.87,0,0,0-5.677.565V9A.5.5,0,0,1,13,9.5Z" transform="translate(-8.333 -1.667)"/><path d="M13,9.625A.626.626,0,0,1,12.375,9V6.335a3.928,3.928,0,0,1,1.032-2.658A4,4,0,0,1,15.966,2.4c.133-.013.269-.02.4-.02a3.987,3.987,0,0,1,2.363.769,3.946,3.946,0,0,1,1.547,2.4.625.625,0,0,1-.487.738.624.624,0,0,1-.738-.487,2.738,2.738,0,0,0-2.681-2.169c-.094,0-.189,0-.282.014a2.712,2.712,0,0,0-2.466,2.7V9A.626.626,0,0,1,13,9.625Zm3.369-7c-.125,0-.252.006-.378.019a3.748,3.748,0,0,0-2.4,1.2,3.679,3.679,0,0,0-.966,2.489V9a.375.375,0,0,0,.75,0V6.335A2.961,2.961,0,0,1,16.066,3.39c.1-.01.205-.015.307-.015A2.989,2.989,0,0,1,19.3,5.744a.375.375,0,1,0,.735-.151,3.7,3.7,0,0,0-1.449-2.247A3.738,3.738,0,0,0,16.369,2.625Z" transform="translate(-8.333 -1.667)"/><path d="M23,31.5a.5.5,0,0,1-.5-.5V29a.5.5,0,0,1,1,0v2A.5.5,0,0,1,23,31.5Z" transform="translate(-15 -19)"/><path d="M23,31.625A.626.626,0,0,1,22.375,31V29a.625.625,0,0,1,1.25,0v2A.626.626,0,0,1,23,31.625Zm0-3a.375.375,0,0,0-.375.375v2a.375.375,0,0,0,.75,0V29A.375.375,0,0,0,23,28.625Z" transform="translate(-15 -19)"/></g></svg>