<svg xmlns="http://www.w3.org/2000/svg" width="16" height="16" viewBox="0 0 16 16"><rect width="16" height="16"  opacity="0"/><path d="M-5643.577-4403.166a.753.753,0,0,1-.53-.221.744.744,0,0,1-.219-.53l0-3.916h-3.93a.751.751,0,0,1-.75-.75.751.751,0,0,1,.75-.75h3.932l0-3.917a.751.751,0,0,1,.75-.75.753.753,0,0,1,.531.221.744.744,0,0,1,.218.53l0,3.916h3.9a.75.75,0,0,1,.75.75.75.75,0,0,1-.75.75h-3.9l0,3.917a.752.752,0,0,1-.75.75ZM-5643.575-4403.417Z" transform="translate(5651.583 4416.582)" /></svg>