<svg xmlns="http://www.w3.org/2000/svg" width="24" height="24" viewBox="0 0 24 24"><g transform="translate(4 4)"><rect width="24" height="24" transform="translate(-4 -4)"  opacity="0"/><path d="M11,17.5H5a.5.5,0,0,1-.5-.5V5A.5.5,0,0,1,5,4.5h6a.5.5,0,0,1,0,1H5.5v11H11a.5.5,0,0,1,0,1Z" transform="translate(-3 -3)" /><path d="M11,17.625H5A.626.626,0,0,1,4.375,17V5A.626.626,0,0,1,5,4.375h6a.625.625,0,0,1,0,1.25H5.625v10.75H11a.625.625,0,0,1,0,1.25Zm-6-13A.375.375,0,0,0,4.625,5V17A.375.375,0,0,0,5,17.375h6a.375.375,0,0,0,0-.75H5.375V5.375H11a.375.375,0,0,0,0-.75Z" transform="translate(-3 -3)" /><path d="M32,20.5a.5.5,0,0,1-.354-.854L34.293,17l-2.646-2.646a.5.5,0,0,1,.707-.707l3,3a.5.5,0,0,1,0,.707l-3,3A.5.5,0,0,1,32,20.5Z" transform="translate(-21 -9)" /><path d="M32,20.625a.625.625,0,0,1-.442-1.067L34.116,17l-2.558-2.558a.625.625,0,0,1,.884-.884l3,3a.626.626,0,0,1,0,.884l-3,3A.621.621,0,0,1,32,20.625Zm0-7a.375.375,0,0,0-.265.64L34.47,17l-2.735,2.735a.375.375,0,1,0,.53.53l3-3a.375.375,0,0,0,0-.53l-3-3A.373.373,0,0,0,32,13.625Z" transform="translate(-21 -9)" /><path d="M23.667,23.492H15a.5.5,0,0,1,0-1h8.667a.5.5,0,1,1,0,1Z" transform="translate(-9.667 -14.994)" /><path d="M23.667,23.617H15a.625.625,0,1,1,0-1.25h8.667a.625.625,0,0,1,0,1.25Zm-8.667-1a.375.375,0,1,0,0,.75h8.667a.375.375,0,0,0,0-.75Z" transform="translate(-9.667 -14.994)" /></g></svg>