<svg xmlns="http://www.w3.org/2000/svg" width="16" height="16" viewBox="0 0 16 16"><rect width="16" height="16" opacity="0"/><path d="M17,29.5H5a.5.5,0,0,1-.5-.5V23a.5.5,0,0,1,1,0v5.5h11V23a.5.5,0,0,1,1,0v6A.5.5,0,0,1,17,29.5Z" transform="translate(-3 -15)"/><path d="M17,25.5a.5.5,0,0,1-.354-.146l-3-3a.5.5,0,1,1,.707-.707L17,24.293l2.646-2.646a.5.5,0,0,1,.707.707l-3,3A.5.5,0,0,1,17,25.5Z" transform="translate(-9 -14.333)" /><path d="M22.992,14.167a.5.5,0,0,1-.5-.5V5a.5.5,0,0,1,1,0v8.667A.5.5,0,0,1,22.992,14.167Z" transform="translate(-14.994 -3)"/></svg>