<svg xmlns="http://www.w3.org/2000/svg" width="24" height="24" viewBox="0 0 24 24"><g transform="translate(-1037 -475)"><rect width="24" height="24" transform="translate(1037 475)" fill="#fff" opacity="0"/><g transform="translate(-29.868 22.125)"><path d="M22.148,4.751a8.669,8.669,0,1,1-6.13,2.539A8.612,8.612,0,0,1,22.148,4.751Zm0,15.337a6.669,6.669,0,1,0-4.715-1.953A6.625,6.625,0,0,0,22.148,20.088Z" transform="translate(1059.178 449.125)" fill="#e25a5a"/><path d="M5.736,37.507A1,1,0,0,1,5.029,35.8L12,28.828a1,1,0,0,1,1.414,1.414L6.443,37.214A1,1,0,0,1,5.736,37.507Z" transform="translate(1063.132 438.368)" fill="#e25a5a"/><path d="M13.415,36.8a1,1,0,0,1-.707-.293L5.736,29.535a1,1,0,1,1,1.414-1.414l6.972,6.972a1,1,0,0,1-.707,1.707Z" transform="translate(1062.812 438.688)" fill="#e25a5a"/></g></g></svg>