<svg xmlns="http://www.w3.org/2000/svg" width="24" height="24" viewBox="0 0 24 24"><g transform="translate(-1037 -476)"><rect width="24" height="24" transform="translate(1037 476)" fill="#fff" opacity="0"/><g transform="translate(1032.687 471.835)"><path d="M38,12.1a1,1,0,0,1-1-1V7.048H32.952a1,1,0,0,1,0-2H38a1,1,0,0,1,1,1V11.1A1,1,0,0,1,38,12.1Z" transform="translate(-11.689 0)" fill="#1292be"/><path d="M14.17,30.814a8.857,8.857,0,1,1,6.263-2.594A8.8,8.8,0,0,1,14.17,30.814Zm0-15.713a6.857,6.857,0,1,0,4.848,2.008A6.812,6.812,0,0,0,14.17,15.1Z" transform="translate(0 -3.534)" fill="#1292be"/><path d="M30,14.633a1,1,0,0,1-.707-1.707l5.585-5.585a1,1,0,0,1,1.414,1.414L30.707,14.34A1,1,0,0,1,30,14.633Z" transform="translate(-10.394 -0.878)" fill="#1292be"/></g></g></svg>