<svg xmlns="http://www.w3.org/2000/svg" width="24" height="24" viewBox="0 0 24 24"><g transform="translate(-30 -124)"><rect width="24" height="24" transform="translate(30 124)" fill="#fff" opacity="0"/><g transform="translate(34 128)"><rect width="16" height="16" fill="#1292be" opacity="0"/><path d="M16,16.667H12A.667.667,0,0,1,11.333,16V10.667h-4V16a.667.667,0,0,1-.667.667h-4A.667.667,0,0,1,2,16V8a.667.667,0,0,1,.25-.521L8.917,2.146a.667.667,0,0,1,.833,0l6.667,5.333a.667.667,0,0,1,.25.521v8A.667.667,0,0,1,16,16.667Zm-3.333-1.333h2.667V8.32l-6-4.8-6,4.8v7.013H6V10a.667.667,0,0,1,.667-.667H12a.667.667,0,0,1,.667.667Z" transform="translate(-1.333 -1.333)" fill="#1292be"/><path d="M22.667,36.667A.667.667,0,0,1,22,36V32.667a.667.667,0,1,1,1.333,0V36A.667.667,0,0,1,22.667,36.667Z" transform="translate(-14.667 -21.333)" fill="#1292be"/></g></g></svg>