<svg xmlns="http://www.w3.org/2000/svg" width="20" height="20" viewBox="0 0 20 20"><g transform="translate(76 -307)"><rect width="20" height="20" transform="translate(-76 307)"  opacity="0"/><g transform="translate(-74.333 308.667)"><path d="M19.833,10.667A.833.833,0,0,1,19,9.833V6.083a.417.417,0,0,0-.417-.417H6.083a.417.417,0,0,0-.417.417v3.75A.833.833,0,0,1,4,9.833V6.083A2.086,2.086,0,0,1,6.083,4h12.5a2.086,2.086,0,0,1,2.083,2.083v3.75A.833.833,0,0,1,19.833,10.667Z" transform="translate(-4 -4)" /><path d="M30.833,26.583A.833.833,0,0,1,30,25.75V22.833a.833.833,0,0,1,1.667,0V25.75A.833.833,0,0,1,30.833,26.583Z" transform="translate(-19.167 -14.5)" /><path d="M22.833,21.333A.833.833,0,0,1,22,20.5V13.833a.833.833,0,1,1,1.667,0V20.5A.833.833,0,0,1,22.833,21.333Z" transform="translate(-14.5 -9.25)" /><path d="M14.833,23.667A.833.833,0,0,1,14,22.833v-5a.833.833,0,1,1,1.667,0v5A.833.833,0,0,1,14.833,23.667Z" transform="translate(-9.833 -11.583)" /><path d="M18.583,34.667H6.083A2.086,2.086,0,0,1,4,32.583v-3.75a.833.833,0,1,1,1.667,0v3.75A.417.417,0,0,0,6.083,33h12.5A.417.417,0,0,0,19,32.583v-3.75a.833.833,0,1,1,1.667,0v3.75A2.086,2.086,0,0,1,18.583,34.667Z" transform="translate(-4 -18)" /></g></g></svg>