<svg xmlns="http://www.w3.org/2000/svg" width="48" height="48" viewBox="0 0 48 48"><g transform="translate(-317 -16)"><rect width="48" height="48" transform="translate(317 16)" fill="#fff" opacity="0"/><path d="M1449.6,42.143h2.4v2.286h-24V42.143h2.4v-8a8.926,8.926,0,0,1,2.808-6.465,9.953,9.953,0,0,1,13.584,0,8.925,8.925,0,0,1,2.808,6.465Zm-2.4,0v-8a6.677,6.677,0,0,0-2.112-4.849,7.449,7.449,0,0,0-10.176,0,6.677,6.677,0,0,0-2.112,4.849v8Zm-10.8,4.571h7.2V49h-7.2Z" transform="translate(-1099 3)" fill="#c2cfe0"/><circle cx="4" cy="4" r="4" transform="translate(345 28)" fill="#e25a5a"/></g></svg>