<svg xmlns="http://www.w3.org/2000/svg" width="20" height="20" viewBox="0 0 20 20"><rect width="20" height="20"  opacity="0"/><g transform="translate(-2.335 -2.94)"><path d="M20.047,10.615a.833.833,0,0,1-.833-.833V7.018a.351.351,0,0,0-.351-.351H7.018a.351.351,0,0,0-.351.351V9.782A.833.833,0,0,1,5,9.782V7.018A2.02,2.02,0,0,1,7.018,5H18.862A2.02,2.02,0,0,1,20.88,7.018V9.782A.833.833,0,0,1,20.047,10.615Z" transform="translate(-0.605)" /><path d="M18.862,36.615H7.018A2.02,2.02,0,0,1,5,34.6V31.834a.833.833,0,1,1,1.667,0V34.6a.351.351,0,0,0,.351.351H18.862a.351.351,0,0,0,.351-.351V31.834a.833.833,0,0,1,1.667,0V34.6A2.02,2.02,0,0,1,18.862,36.615Z" transform="translate(-0.605 -15.735)" /><path d="M13.52,22.984a.834.834,0,0,1-.764-.5l-2.234-5.107-1.87,2.16a.833.833,0,0,1-.63.288H4.833a.833.833,0,0,1,0-1.667H7.641l2.485-2.871a.834.834,0,0,1,1.394.211l2.236,5.112,1.889-2.167a.833.833,0,0,1,.628-.286h3.563a.833.833,0,1,1,0,1.667H16.652l-2.5,2.873A.834.834,0,0,1,13.52,22.984Z" transform="translate(0 -6.052)" /></g></svg>