<svg xmlns="http://www.w3.org/2000/svg" width="20" height="20" viewBox="0 0 20 20"><rect width="20" height="20" opacity="0"/><path d="M19.5,20.333h-5a.833.833,0,0,1-.833-.833V12.833h-5V19.5a.833.833,0,0,1-.833.833h-5A.833.833,0,0,1,2,19.5V9.5a.833.833,0,0,1,.313-.651l8.333-6.667a.833.833,0,0,1,1.041,0l8.333,6.667a.833.833,0,0,1,.313.651v10A.833.833,0,0,1,19.5,20.333Zm-4.167-1.667h3.333V9.9l-7.5-6-7.5,6v8.766H7V12a.833.833,0,0,1,.833-.833H14.5a.833.833,0,0,1,.833.833Z" transform="translate(-1.167 -1.167)" /><path d="M22.833,37.833A.833.833,0,0,1,22,37V32.833a.833.833,0,0,1,1.667,0V37A.833.833,0,0,1,22.833,37.833Z" transform="translate(-12.833 -18.667)"/></svg>