<svg xmlns="http://www.w3.org/2000/svg" width="20" height="20" viewBox="0 0 20 20"><rect width="20" height="20" opacity="0"/><path d="M.917-2A2.917,2.917,0,1,1-2,.917,2.92,2.92,0,0,1,.917-2Zm0,4.167A1.25,1.25,0,1,0-.333.917,1.251,1.251,0,0,0,.917,2.167Z" transform="translate(4.917 11.167)" /><path d="M.917-2A2.917,2.917,0,1,1-2,.917,2.92,2.92,0,0,1,.917-2Zm0,4.167A1.25,1.25,0,1,0-.333.917,1.251,1.251,0,0,0,.917,2.167Z" transform="translate(13.25 11.167)" /><path d="M.917-2A2.917,2.917,0,1,1-2,.917,2.92,2.92,0,0,1,.917-2Zm0,4.167A1.25,1.25,0,1,0-.333.917,1.251,1.251,0,0,0,.917,2.167Z" transform="translate(9.083 2.833)" /><path d="M11.167,37.833A.833.833,0,0,1,10.333,37a3.333,3.333,0,1,0-6.667,0A.833.833,0,0,1,2,37a5,5,0,0,1,10,0A.833.833,0,0,1,11.167,37.833Z" transform="translate(-1.167 -18.667)" /><path d="M31.167,37.833A.833.833,0,0,1,30.333,37a3.333,3.333,0,1,0-6.667,0A.833.833,0,0,1,22,37a5,5,0,0,1,10,0A.833.833,0,0,1,31.167,37.833Z" transform="translate(-12.833 -18.667)" /><path d="M21.167,17.833A.833.833,0,0,1,20.333,17a3.333,3.333,0,1,0-6.667,0A.833.833,0,0,1,12,17a5,5,0,0,1,10,0A.833.833,0,0,1,21.167,17.833Z" transform="translate(-7 -7)" /></svg>